<svg id="Layer_1" enable-background="new 0 0 256 256" height="512" viewBox="0 0 256 256" width="512" xmlns="http://www.w3.org/2000/svg"><g><g><path d="m160.338 99.19v-40.398c0-23.335-18.917-42.251-42.251-42.251h-17.897c-6.926 0-12.541-5.615-12.541-12.541h-12.057c-10.463 0-18.946 8.482-18.946 18.946v76.244z" fill="#fcc24c"/></g><g><path d="m83.647 4h-8.055c-10.463 0-18.946 8.482-18.946 18.946v76.244h8.055v-76.244c.001-10.464 8.483-18.946 18.946-18.946z" fill="#fce06a"/></g><g><g><path d="m118.086 16.541h-8.055c23.335 0 42.251 18.917 42.251 42.251v40.398h8.055v-40.398c.001-23.334-18.916-42.251-42.251-42.251z" fill="#dea42e"/></g></g><g><path d="m160.338 101.19h-103.691c-1.104 0-2-.896-2-2v-76.244c0-11.55 9.396-20.946 20.945-20.946h12.056c1.104 0 2 .896 2 2 0 5.812 4.729 10.541 10.541 10.541h17.897c24.4 0 44.251 19.851 44.251 44.251v40.398c.001 1.105-.895 2-1.999 2zm-101.691-4h99.691v-38.398c0-22.195-18.057-40.251-40.251-40.251h-17.897c-7.34 0-13.427-5.466-14.404-12.541h-10.194c-9.344 0-16.945 7.602-16.945 16.946z" fill="#690589"/></g><g><path d="m87.142 164.022v-42.654h45.458v42.654h41.044c15.899.02 28.772 13.076 28.751 28.975v58.983h-185.254v-59.22c.02-15.899 13.001-28.772 28.901-28.751z" fill="#526faa"/></g><g><path d="m84.089 200.643 9.356 51.333 32.539.024 9.464-51.357-25.788-18.94z" fill="#f4efed"/></g><g><path d="m87.142 153.694 22.518 28.009 22.941-28.009v-32.326h-45.459z" fill="#ff9f70"/></g><g><g><path d="m173.645 164.022h-10.099c15.9.02 28.772 13.063 28.751 28.962v58.996h10.099v-58.983c.021-15.899-12.851-28.955-28.751-28.975z" fill="#34518c"/></g></g><g><g><path d="m46.042 164.009 10.099.013c-15.899-.021-28.88 12.852-28.901 28.751v59.208h-10.099v-59.22c.021-15.9 13.002-28.772 28.901-28.752z" fill="#708dc8"/></g></g><g><path d="m52.905 252.97c-1.104 0-2-.896-2-2v-26.279c0-1.104.896-2 2-2s2 .896 2 2v26.279c0 1.105-.896 2-2 2z" fill="#690589"/></g><g><path d="m166.633 252.97c-1.104 0-2-.896-2-2v-26.279c0-1.104.896-2 2-2s2 .896 2 2v26.279c0 1.105-.896 2-2 2z" fill="#690589"/></g><g><path d="m202.396 253.981h-185.254c-1.104 0-2-.896-2-2v-59.221c.01-8.223 3.237-15.951 9.085-21.764 5.832-5.796 13.565-8.987 21.777-8.987h.041l39.098.012v-40.653c0-1.104.896-2 2-2h45.458c1.104 0 2 .896 2 2v40.654h39.045c16.979.022 30.773 13.918 30.751 30.978v58.981c-.001 1.104-.896 2-2.001 2zm-183.254-4h181.255v-56.983c.02-14.856-11.982-26.957-26.754-26.976h-41.042c-1.104 0-2-.896-2-2v-40.654h-41.458v40.654c0 .531-.211 1.04-.586 1.415s-.884.585-1.414.585l-41.101-.013c-.012 0-.024 0-.036 0-7.15 0-13.881 2.778-18.959 7.824-5.089 5.058-7.896 11.78-7.905 18.929z" fill="#690589"/></g><g><g><path d="m132.601 153.694-22.941 28.009 25.788 18.94 6.859-36.621z" fill="#f4efed"/></g><g><path d="m87.142 153.694 22.518 28.009-25.571 18.94-6.859-36.625z" fill="#f4efed"/></g><g><path d="m135.448 202.643c-.42 0-.835-.132-1.184-.388l-25.789-18.94c-.442-.325-.731-.817-.8-1.361-.068-.544.089-1.093.437-1.518l22.941-28.008c.364-.445.903-.712 1.479-.732.572-.006 1.132.21 1.525.629l9.707 10.328c.438.465.626 1.11.509 1.738l-6.859 36.621c-.127.676-.592 1.239-1.231 1.492-.238.093-.487.139-.735.139zm-22.905-21.304 21.525 15.809 6.087-32.496-7.451-7.927z" fill="#690589"/></g><g><path d="m84.089 202.643c-.247 0-.495-.045-.731-.138-.642-.252-1.108-.816-1.235-1.494l-6.859-36.625c-.119-.635.076-1.288.523-1.753l9.912-10.323c.399-.415.959-.633 1.531-.613.575.025 1.11.297 1.471.745l22.518 28.008c.341.424.495.969.425 1.508-.069.54-.355 1.028-.793 1.352l-25.571 18.94c-.35.259-.768.393-1.191.393zm-4.703-37.982 6.081 32.473 21.331-15.799-19.788-24.613z" fill="#690589"/></g><g><path d="m93.445 193.713 16.215 18.033 16.324-18.055-16.324-11.988z" fill="#8852a8"/></g><g><path d="m93.445 251.976 16.215-40.23 16.324 40.254-16.324-.012z" fill="#8852a8"/></g><g><path d="m109.66 213.746c-.001 0-.002 0-.003 0-.566-.001-1.105-.242-1.484-.663l-16.215-18.033c-.376-.419-.559-.978-.502-1.538.056-.561.347-1.071.799-1.406l16.215-12.01c.705-.523 1.667-.524 2.375-.005l16.324 11.989c.456.335.749.847.806 1.41.057.562-.127 1.124-.506 1.543l-16.324 18.054c-.38.419-.919.659-1.485.659zm-13.257-19.735 13.261 14.748 13.351-14.766-13.35-9.805z" fill="#690589"/></g><g><path d="m125.984 254h-.001l-32.539-.024c-.665 0-1.285-.331-1.657-.881-.371-.551-.445-1.25-.197-1.866l16.215-40.23c.305-.756 1.038-1.251 1.853-1.252h.002c.814 0 1.547.494 1.854 1.249l16.324 40.254c.25.617.177 1.317-.195 1.87-.372.549-.994.88-1.659.88zm-29.577-4.022 26.607.02-13.348-32.916z" fill="#690589"/></g></g><g><path d="m63.329 79.495h-3.224c-8.336 0-15.093 6.757-15.093 15.093 0 8.335 6.757 15.093 15.093 15.093h3.224z" fill="#ffbd8e"/></g><g><path d="m108.492 156.218c-24.943 0-45.163-20.482-45.163-45.75v-31.672c0-25.267 20.22-45.75 45.163-45.75 24.943 0 45.163 20.483 45.163 45.75v31.673c0 25.267-20.22 45.749-45.163 45.749z" fill="#ff9f70"/></g><g><path d="m108.492 33.046c-1.737 0-3.447.109-5.132.303 22.525 2.582 40.031 21.939 40.031 45.447v31.673c0 23.508-17.506 42.865-40.031 45.447 1.686.193 3.396.303 5.132.303 24.943 0 45.163-20.482 45.163-45.75v-31.673c0-25.267-20.22-45.75-45.163-45.75z" fill="#e18152"/></g><g><path d="m108.492 33.046c1.736 0 3.447.109 5.132.303-22.525 2.582-40.031 21.939-40.031 45.447v31.673c0 23.508 17.506 42.865 40.031 45.447-1.685.193-3.396.303-5.132.303-24.943 0-45.163-20.482-45.163-45.75v-31.673c0-25.267 20.22-45.75 45.163-45.75z" fill="#ffbd8e"/></g><g><path d="m108.492 158.218c-26.006 0-47.163-21.42-47.163-47.75v-31.672c0-26.329 21.157-47.75 47.163-47.75s47.163 21.42 47.163 47.75v31.672c0 26.33-21.157 47.75-47.163 47.75zm0-123.172c-23.8 0-43.163 19.626-43.163 43.75v31.672c0 24.124 19.363 43.75 43.163 43.75s43.163-19.626 43.163-43.75v-31.672c0-24.124-19.363-43.75-43.163-43.75z" fill="#690589"/></g><g><path d="m63.329 111.68h-3.224c-9.425 0-17.093-7.668-17.093-17.093s7.668-17.093 17.093-17.093h3.224c1.104 0 2 .896 2 2v30.186c0 1.105-.895 2-2 2zm-3.224-30.185c-7.219 0-13.093 5.874-13.093 13.093s5.874 13.093 13.093 13.093h1.224v-26.186z" fill="#690589"/></g><g><path d="m125.984 254h-.001l-32.539-.024c-.966 0-1.793-.691-1.966-1.642l-9.356-51.333c-.137-.75.165-1.512.777-1.965l25.571-18.94c.705-.523 1.667-.524 2.375-.005l25.788 18.94c.618.454.922 1.221.783 1.974l-9.464 51.357c-.176.95-1.003 1.638-1.968 1.638zm-30.87-4.023 29.205.021 8.935-48.486-23.589-17.325-23.385 17.322z" fill="#690589"/></g><g><path d="m27.24 218.154c-1.104 0-2-.896-2-2v-12c0-1.104.896-2 2-2s2 .896 2 2v12c0 1.105-.895 2-2 2z" fill="#690589"/></g><g><circle cx="202.397" cy="177.47" fill="#fcc24c" r="36.462"/></g><g><path d="m202.397 141.008c-1.024 0-2.035.053-3.038.136 18.714 1.545 33.424 17.213 33.424 36.326s-14.709 34.781-33.424 36.326c1.003.083 2.014.136 3.038.136 20.137 0 36.462-16.325 36.462-36.462 0-20.138-16.325-36.462-36.462-36.462z" fill="#dea42e"/></g><g><path d="m202.397 213.932c1.024 0 2.035-.053 3.038-.136-18.714-1.545-33.424-17.213-33.424-36.326s14.71-34.781 33.424-36.326c-1.003-.083-2.014-.136-3.038-.136-20.137 0-36.462 16.325-36.462 36.462s16.324 36.462 36.462 36.462z" fill="#fce06a"/></g><g><path d="m202.396 215.932c-21.208 0-38.462-17.254-38.462-38.462s17.254-38.462 38.462-38.462 38.462 17.254 38.462 38.462-17.254 38.462-38.462 38.462zm0-72.924c-19.002 0-34.462 15.459-34.462 34.462s15.46 34.462 34.462 34.462 34.462-15.459 34.462-34.462-15.46-34.462-34.462-34.462z" fill="#690589"/></g><g><g><path d="m198.284 178.896c0-1.766 1.562-3.329 3.329-3.329 4.28 0 7.744-3.396 7.744-7.608 0-4.28-3.464-7.608-7.744-7.608-2.785 0-5.231 1.495-6.521 3.736-.951 1.631-2.989 2.174-4.619 1.223-1.562-.951-2.106-2.921-1.155-4.551 2.445-4.212 7.065-7.065 12.295-7.065 7.88 0 14.333 6.385 14.333 14.265 0 6.725-4.687 12.363-11.005 13.857v4.416c0 1.902-1.426 3.328-3.328 3.328-1.766 0-3.329-1.426-3.329-3.328zm6.657 17.797v1.223c0 1.902-1.426 3.329-3.328 3.329-1.766 0-3.329-1.427-3.329-3.329v-1.223c0-1.834 1.562-3.328 3.329-3.328 1.902 0 3.328 1.494 3.328 3.328z" fill="#690589"/></g></g><g><path d="m148.83 138.684h-31.014c-1.104 0-2-.896-2-2s.896-2 2-2h31.014c5.242 0 9.508-4.265 9.508-9.507v-30.59c0-1.104.896-2 2-2s2 .896 2 2v30.589c0 7.449-6.06 13.508-13.508 13.508z" fill="#690589"/></g><g><path d="m156.88 79.495h-3.225v30.185h3.225c8.335 0 15.092-6.757 15.092-15.093 0-8.335-6.757-15.092-15.092-15.092z" fill="#e18152"/></g><g><path d="m156.88 111.68h-3.225c-1.104 0-2-.896-2-2v-30.185c0-1.104.896-2 2-2h3.225c9.425 0 17.093 7.668 17.093 17.093s-7.668 17.092-17.093 17.092zm-1.225-4h1.225c7.22 0 13.093-5.874 13.093-13.093s-5.873-13.092-13.093-13.092h-1.225z" fill="#690589"/></g><g><path d="m106.371 131.817h6.578c2.688 0 4.867 2.179 4.867 4.867 0 2.688-2.179 4.867-4.867 4.867h-6.578c-2.688 0-4.867-2.179-4.867-4.867 0-2.688 2.179-4.867 4.867-4.867z" fill="#f4efed"/></g><g><path d="m112.949 143.552h-6.578c-3.787 0-6.868-3.081-6.868-6.868s3.081-6.867 6.868-6.867h6.578c3.787 0 6.868 3.081 6.868 6.867s-3.082 6.868-6.868 6.868zm-6.578-9.735c-1.581 0-2.868 1.286-2.868 2.867s1.287 2.868 2.868 2.868h6.578c1.581 0 2.868-1.287 2.868-2.868s-1.287-2.867-2.868-2.867z" fill="#690589"/></g></g></svg>