<svg height="512" viewBox="0 0 64 64" width="512" xmlns="http://www.w3.org/2000/svg"><g id="Fill_Outline" data-name="Fill Outline"><g id="Color"><g><path d="m23 28h-12l2-17h8z" fill="#57b7eb"/><path d="m21 11h-8l-.235 2h2.407a2 2 0 0 1 1.414 3.414l-4.786 4.786-.8 6.8h12z" fill="#4891d3"/><path d="m12 3h10v8h-10z" fill="#f9e109"/><path d="m41.014 5h-8.2l-21.814 23v29a4 4 0 0 0 4 4h34a4 4 0 0 0 4-4v-37.654zm-10.922 16.924-1.045-3.5 6.14-9.424h3.8l10.013 11.654v5.412z" fill="#aae1f9"/><path d="m41.014 5 8.944 13.126a6 6 0 0 1 1.042 3.374v2.5a6 6 0 0 1 -6 6h-3.71a26 26 0 0 1 -25.29 20h-5v7a4 4 0 0 0 4 4h34a4 4 0 0 0 4-4v-37.654z" fill="#57b7eb"/><path d="m41 55h-24v-23l7.271-6 22.729 5v18z" fill="#f9e109"/><path d="m41.29 30a25.985 25.985 0 0 1 -24.29 19.957v5.043h24l6-6v-18l-4.546-1z" fill="#fcbc04"/><path d="m37 42a5 5 0 0 1 -10 0c0-2.761 5-9 5-9s5 6.239 5 9z" fill="#aae1f9"/><path d="m29.4 46.252a4.976 4.976 0 0 0 7.6-4.252 5.54 5.54 0 0 0 -.533-2.016 26.072 26.072 0 0 1 -7.067 6.268z" fill="#57b7eb"/><path d="m19.651 3a6 6 0 0 1 -5.651 4h-2v4h10v-8z" fill="#fcbc04"/></g></g><g id="Outline_copy" data-name="Outline copy"><g fill="#39519d"><path d="m32.78 32.375a1.032 1.032 0 0 0 -1.56 0c-.534.666-5.22 6.6-5.22 9.625a6 6 0 0 0 12 0c0-3.025-4.686-8.959-5.22-9.625zm-.78 13.625a4 4 0 0 1 -4-4c0-1.522 2.208-4.972 4-7.365 1.792 2.393 4 5.843 4 7.365a4 4 0 0 1 -4 4z"/><path d="m28 50a1 1 0 0 0 0 2h8a1 1 0 0 0 0-2z"/><path d="m53.768 18.7-11.987-14.342a1 1 0 0 0 -.767-.358h-8.2a1 1 0 0 0 -.725.312l-19.744 20.816.536-4.56 5.76-4.8a1 1 0 0 0 -1.282-1.538l-4.138 3.45.668-5.68h8.111a1 1 0 0 0 1-1v-8a1 1 0 0 0 -1-1h-10a1 1 0 0 0 -1 1v8a.987.987 0 0 0 .878.975l-1.871 15.908h.015a1.111 1.111 0 0 0 -.022.117v5a1 1 0 0 0 2 0v-4.6l21.242-22.4h7.3l11.458 13.708v24.292a1 1 0 0 0 2 0v-24.654a1 1 0 0 0 -.232-.646zm-32.768-14.7v2h-1a1 1 0 0 0 0 2h1v2h-8v-2h3a1 1 0 0 0 0-2h-3v-2z"/><path d="m30.307 20.948a1 1 0 1 0 -.428 1.953l18.907 4.142a.974.974 0 0 0 .214.023 1 1 0 0 0 1-1v-5.412a1 1 0 0 0 -.241-.654l-10.014-11.651a1 1 0 0 0 -.759-.349h-3.8a1 1 0 0 0 -.837.454l-6.141 9.424a1 1 0 1 0 1.676 1.092l5.845-8.97h2.8l9.471 11.025v3.8z"/><path d="m53 47a1 1 0 0 0 -1 1v9a3 3 0 0 1 -3 3h-34a3 3 0 0 1 -3-3v-20a1 1 0 0 0 -2 0v20a5.006 5.006 0 0 0 5 5h34a5.006 5.006 0 0 0 5-5v-9a1 1 0 0 0 -1-1z"/><path d="m17 51a1 1 0 0 0 -1 1v3a1 1 0 0 0 1 1h24a1 1 0 0 0 .707-.293l6-6a1 1 0 0 0 .293-.707v-18a1 1 0 0 0 -.785-.977l-22.729-5a1 1 0 0 0 -.851.206l-7.272 6a1 1 0 0 0 -.363.771v16a1 1 0 0 0 2 0v-15.528l6.532-5.391 21.468 4.719v16.786l-5.414 5.414h-22.586v-2a1 1 0 0 0 -1-1z"/></g></g></g></svg>