<svg id="Capa_1" enable-background="new 0 0 510.326 510.326" height="512" viewBox="0 0 510.326 510.326" width="512" xmlns="http://www.w3.org/2000/svg"><path d="m466.007 317.279v155.185h-271.78v-176.38c0-6.644 5.386-12.03 12.03-12.03h122.377 137.374v33.225z" fill="#dfdfea"/><path d="m441.007 317.279v116.904c0 2.364-1.917 4.281-4.281 4.281h-213.218c-2.364 0-4.281-1.917-4.281-4.281v-120.847c0-2.364 1.917-4.281 4.281-4.281h105.126 108.093c2.364 0 4.281 1.917 4.281 4.281v3.943z" fill="#05f2a7"/><path d="m367.425 420.059c-61.306 0-111.004-49.698-111.004-111.004h-32.913c-2.364 0-4.281 1.917-4.281 4.281v120.847c0 2.364 1.917 4.281 4.281 4.281h213.218c2.364 0 4.281-1.917 4.281-4.281v-14.124z" fill="#13e29d"/><path d="m7.5 232.579v34.482c0 9.385 7.608 16.994 16.994 16.994h117.861c9.385 0 16.993-7.608 16.993-16.994v-34.482z" fill="#fd6773"/><path d="m159.348 67.088v-28.645c0-9.385-7.608-16.993-16.993-16.993h-117.862c-9.385 0-16.994 7.608-16.994 16.993v28.645z" fill="#fd6773"/><path d="m59.412 21.449h-34.919c-9.385 0-16.994 7.608-16.994 16.993v28.645h34.919v-28.644c0-9.385 7.609-16.994 16.994-16.994z" fill="#fc4d5a"/><path d="m7.5 63.088h151.848v173.491h-151.848z" fill="#05f2a7"/><path d="m42.379 100.714v-37.626l-34.879.004v173.658h151.848v-28.687h-9.619c-59.288 0-107.35-48.062-107.35-107.349z" fill="#13e29d"/><path d="m129.234 114.724c2.74 1.16 4.66 3.86 4.66 7.02v47.23c0 4.21-3.42 7.62-7.63 7.62h-85.68c-4.21 0-7.63-3.41-7.63-7.62v-47.23c0-1.58.48-3.05 1.3-4.26 1.38-2.03 3.7-3.36 6.33-3.36h85.68c1.05 0 2.05.21 2.96.6" fill="#fdcf8a"/><path d="m129.224 114.724-43.41 29.041c-1.461.978-3.353 1.034-4.87.144l-44.18-25.906-2.51-.52c1.38-2.03 3.7-3.36 6.33-3.36h85.68c1.05.001 2.05.211 2.96.601z" fill="#fcb64d"/><path d="m478.667 493.52h-297.1c-13.342 0-24.158-10.816-24.158-24.158v-2.391c0-1.937 1.57-3.507 3.507-3.507h338.402c1.937 0 3.507 1.57 3.507 3.507v2.391c0 13.343-10.816 24.158-24.158 24.158z" fill="#c5e1ff"/><g fill="#65daf9"><path d="m467.341 200.544h-103.223c-19.597 0-35.484 15.887-35.484 35.484v72.156 9.095 12.458c0 3.361 3.786 5.33 6.537 3.399l22.593-15.856h109.577c19.597 0 35.484-15.887 35.484-35.484v-45.767c0-19.598-15.887-35.485-35.484-35.485z"/><circle cx="52.913" cy="385.051" r="35.69"/><circle cx="324.419" cy="52.495" r="35.69"/></g><path d="m370.229 345.625c2.74 1.16 4.66 3.86 4.66 7.02v47.23c0 4.21-3.42 7.62-7.63 7.62h-85.68c-4.21 0-7.63-3.41-7.63-7.62v-47.23c0-1.58.48-3.05 1.3-4.26 1.38-2.03 3.7-3.36 6.33-3.36h85.68c1.05 0 2.05.21 2.96.6" fill="#fdcf8a"/><path d="m370.219 345.625-43.41 29.041c-1.461.978-3.353 1.034-4.87.144l-44.18-25.906-2.51-.52c1.38-2.03 3.7-3.36 6.33-3.36h85.68c1.05.001 2.05.211 2.96.601z" fill="#fcb64d"/><path d="m502.826 455.964h-29.318v-131.633c20.79-3 36.817-20.928 36.817-42.535v-45.767c0-21.142-15.347-38.756-35.483-42.316v-123.563c0-13.871-11.284-25.155-25.155-25.155h-82.743c-3.563-20.25-21.269-35.689-42.524-35.689s-38.962 15.439-42.524 35.689h-115.048v-6.552c0-13.506-10.988-24.493-24.494-24.493h-117.86c-13.506-.001-24.494 10.987-24.494 24.493v228.618c0 13.506 10.988 24.494 24.494 24.494h20.919v50.972c-20.25 3.563-35.689 21.269-35.689 42.524s15.439 38.962 35.689 42.524v25.703c0 19.564 15.917 35.48 35.48 35.48h75.681c5.797 7.453 14.841 12.262 24.993 12.262h297.101c17.456 0 31.658-14.202 31.658-31.658v-5.898c0-4.142-3.358-7.5-7.5-7.5zm-301.099 0v-159.88c0-2.497 2.032-4.529 4.53-4.529h114.876v10h-101.906c-4.142 0-7.5 3.357-7.5 7.5v72.267c0 4.143 3.358 7.5 7.5 7.5s7.5-3.357 7.5-7.5v-64.767h94.406v20.969h-39.556c-8.34 0-15.125 6.785-15.125 15.126v47.221c0 8.34 6.785 15.125 15.125 15.125h85.682c8.34 0 15.125-6.785 15.125-15.125v-47.221c0-8.341-6.785-15.126-15.125-15.126h-25.285l18.159-12.744h73.374v106.185h-206.78v-19.643c0-4.143-3.358-7.5-7.5-7.5s-7.5 3.357-7.5 7.5v27.143c0 4.143 3.358 7.5 7.5 7.5h221.78c4.143 0 7.5-3.357 7.5-7.5v-113.685h10v131.185h-256.78zm79.726-96.194 39.173 22.961c1.174.688 2.483 1.029 3.793 1.029 1.431 0 2.859-.409 4.104-1.223l38.862-25.406v42.74c0 .069-.056.125-.125.125h-85.682c-.069 0-.125-.056-.125-.125zm42.75 7.671-25.448-14.917h48.266zm171.122-131.412v45.767c0 15.431-12.554 27.984-27.983 27.984h-109.578c-1.542 0-3.046.476-4.309 1.361l-17.322 12.156v-87.269c0-15.431 12.554-27.984 27.984-27.984h103.224c15.43 0 27.984 12.554 27.984 27.985zm-170.907-211.724c15.544 0 28.189 12.646 28.189 28.189s-12.646 28.19-28.189 28.19-28.189-12.646-28.189-28.19 12.646-28.189 28.189-28.189zm-299.924 4.644h117.86c5.235 0 9.494 4.259 9.494 9.493v17.145h-136.848v-17.144c0-5.235 4.259-9.494 9.494-9.494zm-9.494 238.112v-22.982h136.848v22.982c0 5.235-4.259 9.494-9.494 9.494h-117.86c-5.235 0-9.494-4.259-9.494-9.494zm9.723 117.99c0-15.544 12.646-28.189 28.189-28.189s28.189 12.646 28.189 28.189-12.644 28.189-28.188 28.189-28.19-12.645-28.19-28.189zm56.17 88.708c-11.293 0-20.48-9.188-20.48-20.48v-25.703c20.25-3.563 35.689-21.269 35.689-42.524s-15.439-38.962-35.689-42.524v-50.972h81.941c13.506 0 24.494-10.988 24.494-24.494v-51.805c0-4.143-3.358-7.5-7.5-7.5s-7.5 3.357-7.5 7.5v13.822h-136.848v-158.492h136.848v114.669c0 4.143 3.358 7.5 7.5 7.5s7.5-3.357 7.5-7.5v-125.262h115.047c3.562 20.251 21.269 35.69 42.524 35.69s38.962-15.439 42.524-35.69h82.743c5.6 0 10.155 4.556 10.155 10.155v122.895h-95.724c-23.702 0-42.984 19.283-42.984 42.984v40.526h-114.876c-10.769 0-19.53 8.761-19.53 19.529v159.88h-29.318c-4.142 0-7.5 3.357-7.5 7.5v5.898c0 1.492.111 2.958.312 4.396h-69.328zm397.774 12.262h-297.1c-8.645 0-15.773-6.619-16.582-15.057h29.222c.006 0 .013.001.019.001h271.78c.007 0 .013-.001.019-.001h29.223c-.807 8.438-7.935 15.057-16.581 15.057z"/><circle cx="83.424" cy="260.239" r="9.927"/><path d="m361.797 239.083h11.027c4.143 0 7.5-3.357 7.5-7.5s-3.357-7.5-7.5-7.5h-11.027c-4.143 0-7.5 3.357-7.5 7.5s3.358 7.5 7.5 7.5z"/><path d="m388.902 231.583c0 4.143 3.357 7.5 7.5 7.5h78.335c4.143 0 7.5-3.357 7.5-7.5s-3.357-7.5-7.5-7.5h-78.335c-4.143 0-7.5 3.358-7.5 7.5z"/><path d="m474.737 252.74h-11.027c-4.143 0-7.5 3.357-7.5 7.5s3.357 7.5 7.5 7.5h11.027c4.143 0 7.5-3.357 7.5-7.5s-3.358-7.5-7.5-7.5z"/><path d="m361.797 267.74h78.335c4.143 0 7.5-3.357 7.5-7.5s-3.357-7.5-7.5-7.5h-78.335c-4.143 0-7.5 3.357-7.5 7.5s3.358 7.5 7.5 7.5z"/><path d="m372.825 281.555h-11.027c-4.143 0-7.5 3.357-7.5 7.5s3.357 7.5 7.5 7.5h11.027c4.143 0 7.5-3.357 7.5-7.5s-3.358-7.5-7.5-7.5z"/><path d="m474.737 281.555h-78.335c-4.143 0-7.5 3.357-7.5 7.5s3.357 7.5 7.5 7.5h78.335c4.143 0 7.5-3.357 7.5-7.5s-3.358-7.5-7.5-7.5z"/><path d="m126.265 106.292h-85.682c-8.34 0-15.125 6.785-15.125 15.126v47.221c0 8.34 6.785 15.125 15.125 15.125h85.682c8.34 0 15.125-6.785 15.125-15.125v-47.221c0-8.341-6.786-15.126-15.125-15.126zm-20.239 15-22.817 14.917-25.449-14.917zm20.239 47.472h-85.682c-.069 0-.125-.056-.125-.125v-40.101l39.174 22.962c1.173.688 2.483 1.029 3.792 1.029 1.431 0 2.86-.409 4.104-1.223l38.862-25.406v42.739c0 .07-.055.125-.125.125z"/><path d="m309.674 58.501 16.579 12.394c1.347 1.008 2.922 1.493 4.484 1.493 2.284 0 4.54-1.039 6.013-3.01 2.48-3.317 1.802-8.018-1.517-10.497l-8.923-6.671 9.199-7.573c3.198-2.632 3.656-7.358 1.023-10.557-2.632-3.198-7.359-3.657-10.557-1.023l-16.579 13.647c-1.778 1.463-2.785 3.663-2.731 5.966.055 2.302 1.165 4.452 3.009 5.831z"/><path d="m53.716 403.306c2.302-.054 4.453-1.163 5.832-3.008l12.393-16.579c2.48-3.317 1.801-8.018-1.517-10.497-3.317-2.48-8.017-1.801-10.498 1.517l-6.67 8.923-7.573-9.199c-2.633-3.198-7.359-3.656-10.557-1.023-3.198 2.632-3.656 7.358-1.024 10.557l13.648 16.579c1.427 1.733 3.552 2.733 5.79 2.733.058-.001.117-.002.176-.003z"/></svg>