<svg height="512" viewBox="0 0 60 60" width="512" xmlns="http://www.w3.org/2000/svg"><g id="034---Weigh-On-Shoulders" fill="none"><g id="Icons" transform="translate(0 1)"><path id="Shape" d="m32.25 25.32c-.8810971 2.0141559-1.2090345 4.2268698-.95 6.41.1487491 1.4230806.4299682 2.829176.84 4.2.1764104.4268683.3941116.8354766.65 1.22-.8403071 1.5028994-1.3994564 3.1464594-1.65 4.85-8 8.94-15.84 5.64-17 5.08.3-.33.57-.66.81-1 3.36-4.55 1.53-10.28-1.63-11.41-.39.12-4 1.4-6 1.81-.98705587.2091044-1.96430798-.3939746-2.22-1.37-.6-1.73.23-2.18 0-3.18-.17-.7-.84-.87-1.37-1.24s.27-1.26.27-1.26c-1.67-1.24-1.33-.8-.6-2.34.15817648-.3400697.21043921-.7198455.15-1.09-.14-.74-1.26-1-1.81-1.43-.86-.63-1.13-1 .06-2.35 1.20010874-1.5514529 2.22939367-3.2278127 3.07-5 .11381312-.1883749.18228146-.4006268.2-.62 0-1-1.45-1.39-1.58-2.35-.1-.72.87-2.13 1.17-3.43.16477338-.8174468.38528841-1.62266078.66-2.41.57190281-1.59952906 1.46332266-3.06594873 2.62-4.31 1.82249428-1.66763645 4.1049039-2.74786087 6.55-3.1 7.32-1.5 11.82-1.8 17.92 3 2.82 2.19 4.65 5.24 4.59 11.23-.08 5.02-3.31 6.82-4.75 10.09z" fill="#ffe0b2"/><path id="Shape" d="m31.3 31.73c-.2590345-2.1831302.0689029-4.3958441.95-6.41 1.44-3.27 4.67-5.07 4.75-10.11.06-6-1.77-9-4.59-11.23-4.31-3.37-7.82-4.21-12.1-3.9 3.3659443.33331451 6.5455022 1.70297023 9.1 3.92 2.82 2.19 4.65 5.24 4.59 11.23-.08 5-3.31 6.84-4.75 10.11-.8810971 2.0141559-1.2090345 4.2268698-.95 6.41.1487491 1.4230806.4299682 2.829176.84 4.2.1764104.4268683.3941116.8354766.65 1.22-.8380221 1.4967655-1.3971028 3.1333471-1.65 4.83-3.76 4.19-7.48 5.69-10.48 6 3.27.38 8.33-.31 13.48-6 .2505436-1.7035406.8096929-3.3471006 1.65-4.85-.2558884-.3845234-.4735896-.7931317-.65-1.22-.4100318-1.370824-.6912509-2.7769194-.84-4.2z" fill="#dfc49c"/><path id="Shape" d="m45 58h-38c-.75935974-.0009301-1.45269183-.4318177-1.78974193-1.1122774-.33705009-.6804596-.25967163-1.493101.19974193-2.0977226 1.92261234-2.2212293 4.13979782-4.1692572 6.59-5.79.7826113-.5620888 1.503319-1.2056976 2.15-1.92 1.15.56 9 3.86 17-5.08-.0957854.6624402-.1459036 1.3306831-.15 2 0 7.7319865 6.2680135 14 14 14z" fill="#02a9f4"/><path id="Shape" d="m59 44c0 3.7130309-1.4749958 7.2739856-4.1005051 9.8994949s-6.186464 4.1005051-9.8994949 4.1005051c-.5010337-.0011903-1.0016819-.0278915-1.5-.08-7.1104461-.7662443-12.5003009-6.7683866-12.5-13.92.0007836-.669087.0475606-1.3373289.14-2 .9165214-6.3400204 6.0192913-11.2492229 12.39-11.92.4882828-.0521198.9789448-.0788225 1.47-.08 7.7319865 0 14 6.2680135 14 14z" fill="#6a1b9a"/><path id="Shape" d="m56 44c.0003009 7.1516134-5.3895539 13.1537557-12.5 13.92-7.1104461-.7662443-12.5003009-6.7683866-12.5-13.92.0007836-.669087.0475606-1.3373289.14-2 .9165214-6.3400204 6.0192913-11.2492229 12.39-11.92 7.0985544.7804449 12.4719662 6.7786721 12.47 13.92z" fill="#9d27b0"/></g><g id="Layer_11" fill="#000"><path id="Shape" d="m52 31.74v-5.29c-.0165271-3.022617-2.4773581-5.4610768-5.5-5.45h-3c-3.0226419-.0110768-5.4834729 2.427383-5.5 5.45v5.29c-1.9665249 1.0643101-3.6738222 2.5496588-5 4.35-3.21-12.09 4.87-11.21 5-19.87.07-6.16-1.82-9.58-5-12-6.33-5.01-11-4.77-18.71-3.22-5.87 1.17-9.11 4.05-10.57 10.42-.36 1.58-1.39 2.75-1.22 3.94s1.35 1.83 1.57 2.17c-.82657648 1.7775904-1.85321183 3.4550991-3.06 5-1.41 1.7-1.54 3 .89 4.21.23082853.1129704.45457469.2398712.67.38.07.37-.08.58-.34 1s-.8 1.42 0 2.14l.45.35c-.68 1.97 1.32 2.19 1.4 2.59-.00857876.4257538-.06902455.8488743-.18 1.26-.07871734.6762645.00351805 1.3615594.24 2 .42670686 1.4459632 1.89634164 2.3181501 3.37 2 1.95831742-.4610378 3.8882286-1.0353367 5.78-1.72 2.8 1.37 4.41 7.93-1.87 12.43-2.53700098 1.6748544-4.82892443 3.6941702-6.81 6-.69871843.9076267-.81963554 2.1339087-.31164224 3.1605228.5079933 1.026614 1.55622978 1.6743708 2.70164224 1.6694772h38c6.8905422-.0056475 12.8909695-4.705074 14.5476892-11.3934882 1.6567197-6.6884141-1.4564455-13.6452769-7.5476892-16.8665118zm-12-5.29c.0165034-1.9180487 1.5819123-3.4610947 3.5-3.45h3c1.9180877-.0110947 3.4834966 1.5319513 3.5 3.45v4.43c-3.2306098-1.1703191-6.7693902-1.1703191-10 0zm-24.44 9.55 1-.33c3.11-1 4.67-2.42 4.62-4.29 0-.5522847-.4477153-1-1-1s-1 .4477153-1 1c0 1.45-3 2.26-4.36 2.74-2.5298496.9336971-5.10668432 1.7347856-7.72 2.4-.24182624.0560198-.49604153.0108199-.70373598-.1251256-.20769445-.1359454-.35083957-.3508359-.39626402-.5948744-.5-1.44.34-1.71 0-3.1-.19941005-.6698417-.6711493-1.2250425-1.3-1.53l.11-.17c.16230275-.2128269.23251461-.4818343.19492608-.7468335-.03758854-.2649991-.17983987-.50387-.39492608-.6631665l-.61-.43c.48631826-.6913005.68035795-1.5465125.54-2.38-.26-1.37-1.71-1.6-2.47-2.26 1.47782269-1.795072 2.72114745-3.7709502 3.7-5.88.64-1.27.24-2.08-.8-3-.17-.15-.47-.42-.48-.53 0-.27.87-1.86 1.15-3.06 1.26-5.56 3.7-8.05 9.04-9.11 7.08-1.4 11.32-1.74 17.12 2.83 2.49 1.94 4.26 4.63 4.2 10.43-.07 4.66-3.15 6.27-4.67 9.72-1.24 2.86-1.65 6.16-.15 11.29.1169754.3505847.2747227.6862172.47 1-.6974112 1.3572968-1.1798253 2.8146597-1.43 4.32-6.08 6.64-11.84 5.95-14.43 5.13 2.92-3.99 2.34-9.11-.23-11.66zm-8.56 22c-.38060232-.0009131-.72768908-.2178015-.89534861-.5594873-.16765953-.3416859-.12682057-.7489229.10534861-1.0505127 1.86145202-2.1392789 4.0042929-4.0163671 6.37-5.58.6438259-.4637462 1.2491287-.9787552 1.81-1.54 4.61 1.73 10.4.99 15.61-3.74.1918743 5.1823104 3.0469465 9.8979064 7.55 12.47zm38 0c-7.1797017 0-13-5.8202983-13-13s5.8202983-13 13-13 13 5.8202983 13 13c0 3.4478144-1.3696389 6.7544152-3.8076118 9.1923882-2.437973 2.4379729-5.7445738 3.8076118-9.1923882 3.8076118z"/><path id="Shape" d="m42.3 36.41c1.8646144-.5366749 3.8450872-.5193024 5.7.05.5522847.0828427 1.0671573-.2977153 1.15-.85s-.2977153-1.0671573-.85-1.15c-2.1474397-.680096-4.4525603-.680096-6.6 0-.3689577.0821837-.6600434.3653851-.7523249.7319476-.0922816.3665625.0300141.753832.3160789 1.0009167.2860649.2470846.6870038.3117519 1.036246.1671357z"/><path id="Shape" d="m47.7 53.59c-1.759477.5401535-3.640523.5401535-5.4 0-.3492422-.1446162-.7501811-.0799489-1.036246.1671357-.2860648.2470847-.4083605.6343542-.3160789 1.0009167.0922815.3665625.3833672.6497639.7523249.7319476 2.1474397.680096 4.4525603.680096 6.6 0 .4792547-.1984526.7272023-.7304121.571-1.2250526-.1562023-.4946406-.6646903-.7877257-1.171-.6749474z"/><path id="Shape" d="m41.34 49.75c.2651659.2546943.6487093.3433359.9987417.2308216.3500324-.1125144.6100907-.4080352.6771882-.7695321.0670976-.361497-.069589-.7306577-.3559299-.9612895l-3.14-2.75 3.14-2.75c.2863409-.2306318.4230275-.5997925.3559299-.9612895-.0670975-.3614969-.3271558-.6570177-.6771882-.7695321-.3500324-.1125143-.7335758-.0238727-.9987417.2308216l-2.34 2.05v-2.3c0-.5522847-.4477153-1-1-1s-1 .4477153-1 1v8c0 .5522847.4477153 1 1 1s1-.4477153 1-1v-1.3z"/><path id="Shape" d="m51 44c-.5522847 0-1 .4477153-1 1s.4477153 1 1 1h1.86c-.5072834 1.4345451-2.008187 2.2621268-3.4920786 1.9254936s-2.4807605-1.7308554-2.3193658-3.2438682c.1613947-1.5130129 1.4299324-2.6655818 2.9514444-2.6816254h2c.5522847 0 1-.4477153 1-1s-.4477153-1-1-1h-2c-2.6594316.0285211-4.8311292 2.1339456-4.9420316 4.7912169-.1109023 2.6572713 1.8778069 4.9363321 4.5256135 5.186353 2.6478066.250021 5.0279658-1.6165065 5.4164181-4.2475699.0676681-.4358908-.059957-.8794703-.348928-1.2127503-.2889711-.3332799-.7099909-.5224709-1.151072-.5172497z"/></g></g></svg>