<svg id="Layer_90" enable-background="new 0 0 256 220.2" height="512" viewBox="0 0 256 220.2" width="512" xmlns="http://www.w3.org/2000/svg"><path d="m161.9 205.4h-2.1v-2.1c0-1.5-1.3-2.8-2.8-2.8s-2.8 1.3-2.8 2.8v2.1h-2.1c-1.5 0-2.8 1.3-2.8 2.8s1.3 2.8 2.8 2.8h2.1v2.1c0 1.5 1.3 2.8 2.8 2.8s2.8-1.3 2.8-2.8v-2.1h2.1c1.5 0 2.8-1.3 2.8-2.8s-1.2-2.8-2.8-2.8z" fill="#70d6f9"/><path d="m29.6 43.4c-4-.7-7.1-3.8-7.9-7.7 0-.1-.1-.2-.2-.1-.1 0-.1.1-.1.1-.8 4-3.9 7-7.9 7.7-.1 0-.2.1-.1.2 0 .1.1.1.1.1 4 .7 7.1 3.8 7.9 7.7 0 .1.1.2.2.1.1 0 .1-.1.1-.1.8-4 3.9-7 7.9-7.7 0 0 0-.1 0-.3z" fill="#f5c84c"/><path d="m181.9 5.3c-2.7-.5-4.7-2.5-5.3-5.2 0-.1-.1-.1-.1-.1s-.1 0-.1.1c-.5 2.6-2.6 4.7-5.3 5.2-.1 0-.1.1-.1.1 0 .1 0 .1.1.1 2.7.5 4.7 2.5 5.3 5.2 0 .1.1.1.1.1s.1 0 .1-.1c.5-2.6 2.6-4.7 5.3-5.2.1 0 .1-.1.1-.1 0-.1 0-.1-.1-.1z" fill="#ef4460"/><circle cx="38" cy="64.5" fill="#ef4460" r="3"/><circle cx="132" cy="198.5" fill="#87d147" r="3"/><path d="m252.1 21.4h-189.4c-.8 0-1.4.6-1.4 1.4v47.5c3 0 5.9 1.2 7.9 3.4 11.8 12.5 27.9 18.4 46.7 23.9 2.5.7 4.2 3 4.2 5.6v28.6c0 17.2-4.8 34.1-13.8 48.8h145.1c1.2 0 2.2-1 2.2-2.2v-155.6c-.1-.8-.7-1.4-1.5-1.4z" fill="#edf4fc"/><circle cx="223.6" cy="70.5" fill="#c7d7e5" r="6.2"/><circle cx="223.5" cy="96.2" fill="#c7d7e5" r="6.2"/><path d="m217.3 70.5c0-1.8.8-3.5 2.1-4.6h-9.7c-2.6 0-4.6 2.1-4.6 4.6s2.1 4.6 4.6 4.6h9.7c-1.3-1.1-2.1-2.8-2.1-4.6z" fill="#87d147"/><path d="m217.3 96.1c0-1.8.8-3.5 2.1-4.6h-9.7c-2.6 0-4.6 2.1-4.6 4.6s2.1 4.6 4.6 4.6h9.7c-1.3-1.1-2.1-2.8-2.1-4.6z" fill="#87d147"/><circle cx="223.5" cy="121.8" fill="#c7d7e5" r="6.2"/><path d="m217.3 121.8c0-1.8.8-3.5 2.1-4.6h-9.7c-2.6 0-4.6 2.1-4.6 4.6s2.1 4.6 4.6 4.6h9.7c-1.3-1.1-2.1-2.8-2.1-4.6z" fill="#87d147"/><circle cx="211.2" cy="147.4" fill="#c7d7e5" r="6.2"/><path d="m225.1 142.8h-9.8c1.3 1.2 2.1 2.9 2.1 4.6s-.7 3.4-2.1 4.6h9.8c2.5 0 4.6-2 4.6-4.6 0-2.5-2-4.6-4.6-4.6z" fill="#ef4460"/><path d="m252.1 21.4h-189.4c-.8 0-1.4.6-1.4 1.4v16.7h192.2v-16.7c0-.8-.6-1.4-1.4-1.4z" fill="#5290db"/><circle cx="76.8" cy="30" r="2.9"/><circle cx="87" cy="30" r="2.9"/><circle cx="97.2" cy="30" r="2.9"/><path d="m109.5 105.3c-38.5-11.5-46.5-25.4-48.2-26.6-1.6 1.1-10.1 15.2-48.2 26.5l-1.4.4v26.1c0 30.9 16.8 59.1 44.8 75.5 3 1.7 6.6 1.7 9.6 0 28.1-16.4 44.8-44.6 44.8-75.5v-26.1z" fill="#5290db"/><path d="m120.1 103.2c0-2.6-1.7-4.9-4.2-5.6-18.7-5.4-34.9-11.4-46.7-23.9-4.1-4.4-10.9-4.6-15.2-.6-.2.2-.4.4-.6.6-11.8 12.5-28 18.5-46.7 23.9-2.5.7-4.2 3-4.2 5.6v28.6c0 34.2 18.9 65.6 49.4 83.4 5.8 3.4 13 3.4 18.8 0 30.5-17.8 49.4-49.3 49.4-83.4z" fill="#9be5f9"/><path d="m109.5 105.3c-38.5-11.5-46.5-25.4-48.2-26.6-1.6 1.1-10.1 15.2-48.2 26.5l-1.4.4v26.1c0 30.9 16.8 59.1 44.8 75.5 3 1.7 6.6 1.7 9.6 0 28.1-16.4 44.8-44.6 44.8-75.5v-26.1z" fill="#70d6f9"/><path d="m61 161.6c-2.9 0-5.7-.7-8.3-2v6.8l3.7 8.1c.3.6.9 1 1.6 1h6.2c.7 0 1.3-.4 1.6-1l4-8.2v-7.1c-2.7 1.6-5.7 2.4-8.8 2.4z" fill="#f2ba94"/><path d="m92.8 174.4-14.4-3.6-8.6-4.3-4 8.2c-.3.6-.9 1-1.6 1h-6.2c-.7 0-1.3-.4-1.6-1l-3.7-8.1-8.6 4.3-14.4 3.6c-1.9.5-3.5 1.7-4.5 3.4 7.9 12.2 18.6 22.3 31.2 29.6 3 1.7 6.6 1.7 9.6 0 12.6-7.3 23.3-17.4 31.2-29.6-.9-1.9-2.5-3.1-4.4-3.5z" fill="#edf4fc"/><path d="m78.4 170.7-4.3 10.5c-.3.8-1.3 1.2-2.1.9-.3-.1-.5-.3-.6-.5l-5.6-7 4-8.2z" fill="#c7d7e5"/><path d="m48.4 181.3c.3.8 1.3 1.2 2.1.9.3-.1.5-.3.6-.5l5.5-6.8c-.1-.1-.1-.2-.1-.2l-3.7-8.1-5.8 2.8-2.9 1.4z" fill="#c7d7e5"/><g fill="#f2ba94"><path d="m80.7 129c-.4 0-.8 0-1.2.1v14 1.2c4.2.7 8.2-2.2 8.9-6.4s-2.2-8.2-6.4-8.9c-.5 0-.9 0-1.3 0z"/><path d="m42.5 143.1v-14c-4.2-.7-8.2 2.2-8.9 6.4s2.2 8.2 6.4 8.9c.8.1 1.7.1 2.5 0 0-.5 0-.9 0-1.3z"/><path d="m63.8 120.6c-6.8 8.5-16.7 7.3-20.1 6.6-.5-.1-1.1.2-1.2.8v.2 14.9c0 10.2 8.3 18.5 18.5 18.5 10.2 0 18.5-8.3 18.5-18.5v-16.5c0-.1 0-.2 0-.3 0-.5-.4-1-1-1-7.7-.2-11.7-3.3-13.3-4.8-.3-.3-1-.3-1.4.1z"/></g><path d="m41.3 129c.4 0 .8 0 1.2.1v-.9c0-.5.5-1 1-1h.2c3.4.7 13.3 1.9 20.1-6.6.3-.4 1-.5 1.4-.2 0 0 .1 0 .1.1 1.6 1.5 5.6 4.6 13.3 4.8.5 0 .9.4 1 1v.3 2.5c2.4-.4 4.8.4 6.5 2.1v-13.9c0-5.8-4.7-10.6-10.6-10.6-1.9 0-3.8.5-5.4 1.5-1.9-3.2-5.3-5.2-9.1-5.2h-5.4c-10.5 0-19.1 8.6-19.1 19.1v8.6c1.4-1.1 3.1-1.7 4.8-1.7z" fill="#893c1a"/><path d="m252.1 18.9h-189.4c-2.1 0-3.9 1.7-3.9 3.9v45.2c-2.8.5-5.3 1.9-7.2 4-10.8 11.5-25.4 17.4-45.6 23.2-3.6 1-6 4.3-6 8v28.6c0 35.1 18.9 67.1 50.6 85.6 6.6 3.8 14.7 3.8 21.3 0 14.5-8.4 26.8-20.1 35.8-34.3h143.6c2.6 0 4.7-2.1 4.7-4.7v-155.6c0-2.2-1.7-3.9-3.9-3.9zm-148.3 161c-8.6 13.7-20.4 25.1-34.4 33.2-5 2.9-11.3 2.9-16.3 0-30.1-17.7-48.1-48.1-48.1-81.3v-28.6c0-1.5 1-2.8 2.4-3.2 21-6.1 36.3-12.3 47.8-24.5 3.1-3.4 8.3-3.6 11.7-.5.2.1.3.3.5.5 12.6 13.4 30 19.4 47.8 24.6.2.1.3.1.5.2 1.2.6 1.9 1.7 1.9 3v28.6c0 28.1-13.3 46.5-13.8 48zm147.2-1.8h-140.3c6.8-12.4 10.8-26.1 11.7-40.2 0-.1 0-.3 0-.4 0-.8.1-1.7.1-2.5 0-1 .1-2.1.1-3.1v-28.6c0-3.7-2.5-7-6-8-20.2-5.9-34.8-11.8-45.6-23.3-1.9-2-4.4-3.4-7.2-4v-26.1h187.2zm0-141.2h-187.2v-13h187.2z"/><path d="m53.9 146.1c-1.1.8-1.4 2.3-.7 3.5 3 4.4 9 5.6 13.4 2.6 1-.7 1.9-1.6 2.6-2.6.8-1.1.5-2.7-.6-3.5s-2.7-.5-3.5.6v.1c-1.4 2.1-4.3 2.7-6.5 1.3-.5-.3-.9-.8-1.3-1.3-.7-1.2-2.2-1.5-3.4-.7z"/><path d="m54.2 139.2c1.4 0 2.5-1.1 2.5-2.5 0-1.2-.8-2.2-2-2.5-1.4-.3-2.7.6-2.9 2s.6 2.7 2 2.9c.1.1.3.1.4.1z"/><path d="m68.3 139.2c1.4 0 2.5-1.1 2.5-2.5s-1.1-2.5-2.5-2.5-2.5 1.1-2.5 2.5 1.1 2.5 2.5 2.5z"/><path d="m111.6 103.3-1.4-.4c-38.2-11.4-45-24.5-47.5-26.3-.9-.6-2-.6-2.8 0-2.3 1.6-10.1 15.1-47.5 26.2l-1.4.4c-1.1.3-1.8 1.3-1.8 2.4v26.1c0 32.5 17.9 61.2 46.1 77.7 3.7 2.2 8.4 2.2 12.1 0 27.9-16.3 46.1-44.9 46.1-77.7v-26.1c-.1-1-.8-2-1.9-2.3zm-46.8 101.8c-2.2 1.3-4.9 1.3-7.1 0-11.7-6.8-21.7-16.1-29.4-27.3.6-.5 1.3-.9 2-1.1l12.3-3.1 3.5 8.5c.8 2.1 3.2 3.1 5.3 2.3.6-.3 1.2-.7 1.7-1.2l4.1-5.2c.3.1.6.1.8.1h6.2c.4 0 .7-.1 1.1-.1l4.2 5.2c1.4 1.8 4 2 5.8.6.5-.4 1-1 1.2-1.7l3.5-8.5 12.3 3.1c.7.2 1.4.6 2 1.1-7.7 11.2-17.8 20.5-29.5 27.3zm-25.8-78.3v-4.6c0-9.2 7.4-16.6 16.6-16.6h5.4c2.8 0 5.5 1.5 6.9 4 .7 1.2 2.2 1.6 3.4.9 3.8-2.3 8.7-1.1 11 2.7.8 1.3 1.2 2.7 1.2 4.2v9.6c-.5-.1-1-.3-1.5-.3v-.3c0-1.9-1.5-3.4-3.4-3.4-4.1-.1-8.7-1.3-11.6-4.1 0 0-.1 0-.1-.1-1.4-1.3-3.6-1.2-4.9.2-.1.1-.1.1-.2.2-.4.5-.7.9-1.1 1.3-4.4 4.5-10.4 5.6-16.6 4.4-1.5-.3-3 .4-3.7 1.7-.4 0-.9.1-1.4.2zm1 4.9v10.1c-2.8-.7-4.5-3.6-3.7-6.4.4-1.8 1.9-3.3 3.7-3.7zm45.9 5c0 2.4-1.6 4.5-3.9 5.1v-10.1c2.3.6 3.9 2.6 3.9 5zm-40.9-6.7c7.4 1 14.6-1.1 19.7-6.6 3.6 2.7 7.8 4.2 12.3 4.4v15.3c.1 8.8-7 16.1-15.9 16.1s-16.1-7-16.1-15.9c0-.1 0-.2 0-.3zm30.3 41.9-2.8 6.9-3.7-4.6 2.2-4.5zm-8-8.8v2.8l-3.5 7.3h-5.3l-3.3-7.2v-2.7c4 1.1 8.2 1 12.1-.2zm-13.7 11.4-3.5 4.4-2.8-6.9 4.2-2.1zm54.8-42.7c0 14.7-4 29.2-11.5 41.8-1-.8-2.2-1.3-3.5-1.7l-14.1-3.6-7-3.5v-4.2c4.9-3.1 8.3-8.2 9.3-13.9 5.6-.5 9.7-5.5 9.2-11.1-.2-2.1-1-4-2.3-5.6v-12.9c0-7.2-5.9-13.1-13.1-13.1-1.6 0-3.1.3-4.6.9-2.5-2.9-6.1-4.5-9.9-4.5h-5.4c-11.9 0-21.6 9.7-21.6 21.6v7.5c-3.9 4-3.9 10.5.2 14.4 1.7 1.6 3.9 2.6 6.2 2.9 1.1 5.9 4.7 11.1 9.9 14.2v3.8l-7 3.5-14.1 3.6c-1.3.3-2.5.9-3.5 1.7-7.5-12.7-11.5-27.1-11.5-41.8v-24.2c31.3-9.4 42.9-20.6 47.2-25.2 4.2 4.6 15.6 15.7 47.1 25.2z"/><path d="m100.1 67.6h92.2c1.4 0 2.5-1.1 2.5-2.5s-1.1-2.5-2.5-2.5h-92.2c-1.4 0-2.5 1.1-2.5 2.5s1.1 2.5 2.5 2.5z"/><path d="m192.7 73.3h-92.2c-1.4 0-2.5 1.1-2.5 2.5s1.1 2.5 2.5 2.5h92.2c1.4 0 2.5-1.1 2.5-2.5s-1.1-2.5-2.5-2.5z"/><path d="m209.7 77.6h8.9c3.9 2.7 9.3 1.7 12-2.2s1.7-9.3-2.2-12c-3-2.1-6.9-2.1-9.9 0h-8.9c-3.9 0-7.1 3.2-7.1 7.1s3.2 7.1 7.2 7.1c-.1 0 0 0 0 0zm13.8-10.8c2 0 3.7 1.6 3.7 3.7s-1.6 3.7-3.7 3.7c-2 0-3.7-1.6-3.7-3.7.1-2.1 1.7-3.7 3.7-3.7zm-13.8 1.5h5.5c-.4 1.4-.4 2.8 0 4.2h-5.5c-1.2 0-2.1-.9-2.1-2.1-.1-1.1.9-2.1 2.1-2.1z"/><path d="m132 93.2h60.2c1.4 0 2.5-1.1 2.5-2.5s-1.1-2.5-2.5-2.5h-60.2c-1.4 0-2.5 1.1-2.5 2.5s1.1 2.5 2.5 2.5z"/><path d="m192.7 99h-60.2c-1.4 0-2.5 1.1-2.5 2.5s1.1 2.5 2.5 2.5h60.2c1.4 0 2.5-1.1 2.5-2.5s-1.1-2.5-2.5-2.5z"/><path d="m209.7 103.2h8.9c3.9 2.7 9.3 1.7 12-2.2s1.7-9.3-2.2-12c-3-2.1-6.9-2.1-9.9 0h-8.9c-3.9 0-7.1 3.2-7.1 7.1s3.2 7.1 7.2 7.1c-.1 0 0 0 0 0zm13.8-10.7c2 0 3.7 1.6 3.7 3.7s-1.6 3.7-3.7 3.7c-2 0-3.7-1.6-3.7-3.7.1-2.1 1.7-3.7 3.7-3.7zm-13.8 1.5h5.5c-.4 1.4-.4 2.8 0 4.2h-5.5c-1.2 0-2.1-.9-2.1-2.1-.1-1.1.9-2.1 2.1-2.1z"/><path d="m132 118.9h60.2c1.4 0 2.5-1.1 2.5-2.5s-1.1-2.5-2.5-2.5h-60.2c-1.4 0-2.5 1.1-2.5 2.5s1.1 2.5 2.5 2.5z"/><path d="m192.7 124.7h-60.2c-1.4 0-2.5 1.1-2.5 2.5s1.1 2.5 2.5 2.5h60.2c1.4 0 2.5-1.1 2.5-2.5s-1.1-2.5-2.5-2.5z"/><path d="m209.7 128.9h8.9c3.9 2.7 9.3 1.7 12-2.2s1.7-9.3-2.2-12c-3-2.1-6.9-2.1-9.9 0h-8.9c-3.9 0-7.1 3.2-7.1 7.1.1 3.9 3.2 7.1 7.2 7.1zm13.8-10.8c2 0 3.7 1.6 3.7 3.7s-1.6 3.7-3.7 3.7-3.7-1.6-3.7-3.7c.1-2 1.7-3.7 3.7-3.7zm-13.8 1.6h5.5c-.2.7-.3 1.4-.3 2.1s.1 1.4.3 2.1h-5.5c-1.2 0-2.1-.9-2.1-2.1s.9-2.1 2.1-2.1z"/><path d="m132 144.5h60.2c1.4 0 2.5-1.1 2.5-2.5s-1.1-2.5-2.5-2.5h-60.2c-1.4 0-2.5 1.1-2.5 2.5s1.1 2.5 2.5 2.5z"/><path d="m192.7 150.3h-60.2c-1.4 0-2.5 1.1-2.5 2.5s1.1 2.5 2.5 2.5h60.2c1.4 0 2.5-1.1 2.5-2.5s-1.1-2.5-2.5-2.5z"/><path d="m211.2 156.1c1.8 0 3.5-.5 4.9-1.5h8.9c3.9 0 7.1-3.2 7.1-7.1s-3.2-7.1-7.1-7.1h-8.9c-3.9-2.7-9.3-1.7-12 2.2s-1.7 9.3 2.2 12c1.4 1 3.2 1.5 4.9 1.5zm8.4-10.8h5.5c1.2 0 2.1.9 2.1 2.1s-.9 2.1-2.1 2.1h-5.5c.2-.7.3-1.4.3-2.1s-.1-1.4-.3-2.1zm-8.4-1.5c2 0 3.7 1.6 3.7 3.7 0 2-1.6 3.7-3.7 3.7-2 0-3.7-1.6-3.7-3.7.1-2.1 1.7-3.7 3.7-3.7z"/></svg>