<svg height="512" viewBox="0 0 256 256" width="512" xmlns="http://www.w3.org/2000/svg"><path d="m221.78 195.18h-27.618a22.5 22.5 0 0 0 -22.46 22.49v20.97h36.262l.007.008.008-.008h35.811a3.24 3.24 0 0 1 .44.02v-20.99a22.5 22.5 0 0 0 -22.45-22.49z" fill="#72c1e8"/><path d="m232.867 211.604-11.09-16.426-.001.001.001-.001h-27.615l-11.09 16.426 24.897 27.044.001-.002v.002z" fill="#7c7b7a"/><path d="m221.777 195.178-13.808 43.47-13.807-43.47z" fill="#efefef"/><path d="m158.09 220.25v18.39h-60.18v-18.39a18.669 18.669 0 0 1 18.64-18.66h22.9a18.669 18.669 0 0 1 18.64 18.66z" fill="#72c1e8"/><path d="m239.07 66.963c0-47.466-60.9-63.525-111.4-63.525-50.018 0-111.4 15.97-111.4 63.525 0 23.775 15.318 39.663 36.924 49.606a2.9 2.9 0 0 1 1.663 2.189l2.538 16.615a2.889 2.889 0 0 0 5.3 1.106l7.28-11.525a2.888 2.888 0 0 1 3.211-1.237 204.321 204.321 0 0 0 44.736 6.568 2.881 2.881 0 0 1 2.614 1.941l4.735 13.762a2.889 2.889 0 0 0 5.464 0l4.749-13.8a2.881 2.881 0 0 1 2.6-1.939 202.91 202.91 0 0 0 44.511-6.686 2.889 2.889 0 0 1 3.216 1.222l7.483 11.734a2.889 2.889 0 0 0 5.293-1.122l2.57-17a2.893 2.893 0 0 1 1.644-2.185c21.261-9.972 36.269-25.779 36.269-49.249z" fill="#efefef"/><circle cx="128" cy="41.655" fill="#f4cf5a" r="23.967"/><path d="m168.16 90.53v20.79h-80.32v-20.79a24.92 24.92 0 0 1 21.94-24.74 26.778 26.778 0 0 1 2.96-.17h30.52a24.924 24.924 0 0 1 24.9 24.91z" fill="#7c7b7a"/><path d="m151.4 66.99-36.07 44.33h-14.9c18.1-21.8 14.08-16.96 20.06-24.17l17.88-21.53h4.89a24.658 24.658 0 0 1 8.14 1.37z" fill="#fc5d3d"/><path d="m161.57 73.661-31.27 37.66h-14.97l36.07-44.33a24.8 24.8 0 0 1 10.17 6.67z" fill="#72c1e8"/><path d="m138.37 65.62-17.88 21.53c-1.172-2.335-9.272-18.47-10.71-21.36a26.778 26.778 0 0 1 2.96-.17z" fill="#efefef"/><g fill="#f0c020"><path d="m214.919 78.453c-4.009-1.324-8.149-2.482-10.473-12.5-2.141 9.222-5.571 10.875-10.473 12.5 7.995 2.642 9.2 7.017 10.473 12.495 2.19-9.443 5.815-10.956 10.473-12.495z"/><path d="m192.651 41.655c-4.009-1.324-8.149-2.482-10.473-12.495-2.141 9.222-5.571 10.875-10.473 12.5 7.995 2.642 9.2 7.017 10.473 12.495 2.19-9.448 5.815-10.961 10.473-12.5z"/><path d="m69.467 76.238c-4.009-1.325-8.149-2.483-10.473-12.495-2.141 9.222-5.571 10.875-10.473 12.495 8 2.642 9.2 7.017 10.473 12.5 2.191-9.448 5.815-10.961 10.473-12.5z"/></g><path d="m116.545 201.588-4.146 8.746a7.441 7.441 0 0 0 2.836 9.532l12.765 7.822 11.455-26.1z" fill="#7c7b7a"/><path d="m143.6 210.334-4.146-8.746-11.454 26.1 12.765-7.822a7.442 7.442 0 0 0 2.835-9.532z" fill="#7c7b7a"/><path d="m139.455 201.588-11.455 26.1-11.455-26.1z" fill="#efefef"/><path d="m86.37 217.24v21.4h-74.16a3.168 3.168 0 0 0 -.44.02v-21.42a23.133 23.133 0 0 1 22.94-23.14h28.56a23.151 23.151 0 0 1 23.1 23.14z" fill="#72c1e8"/><path d="m73.418 211.604-11.09-17.505h-27.615l-11.089 17.505 24.897 27.044.001-.003-.001.003z" fill="#7c7b7a"/><path d="m62.328 194.099-13.807 44.549-13.808-44.549z" fill="#efefef"/><path d="m207.969 195.178a15.342 15.342 0 0 1 -15.341-15.341v-12.8h30.683v12.8a15.342 15.342 0 0 1 -15.342 15.341z" fill="#ffb69f"/><path d="m226.012 147.938-6.619 3.454a11.9 11.9 0 0 1 -5.509 1.351h-14.177a7.991 7.991 0 0 0 -7.889 9.263l.81 5.028h30.683a16.759 16.759 0 0 0 2.701-19.096z" fill="#7c7b7a"/><path d="m150.72 182.369v12.28h-11.39a12.566 12.566 0 0 0 1.4-5.79v-7.21l-25.46-3.41v10.62a12.5 12.5 0 0 0 1.4 5.79h-11.39v-12.28a22.72 22.72 0 0 1 45.44 0z" fill="#7c7b7a"/><path d="m115.27 178.239v10.62a12.5 12.5 0 0 0 1.4 5.79 12.718 12.718 0 0 0 22.66 0 12.566 12.566 0 0 0 1.4-5.79v-7.21z" fill="#ffb69f"/><path d="m64.3 173.1v5.22a15.78 15.78 0 1 1 -31.56 0v-5.22a7.9 7.9 0 0 1 12.47-6.42 5.644 5.644 0 0 0 6.62 0 7.9 7.9 0 0 1 12.47 6.42z" fill="#ffb69f"/><path d="m57.441 152.458a7.939 7.939 0 0 0 -5.61 1.4 5.659 5.659 0 0 1 -6.63 0 7.912 7.912 0 0 0 -5.6-1.4 8.075 8.075 0 0 0 -6.86 8.11v12.532a7.9 7.9 0 0 1 12.47-6.42 5.644 5.644 0 0 0 6.62 0 7.9 7.9 0 0 1 12.469 6.42v-12.53a8.083 8.083 0 0 0 -6.859-8.112z" fill="#7c7b7a"/><path d="m244.23 238.66a3.24 3.24 0 0 0 -.44-.02h-231.58a3.168 3.168 0 0 0 -.44.02 6.957 6.957 0 0 0 .44 13.9h231.58a6.957 6.957 0 0 0 .44-13.9z" fill="#7c7b7a"/><path d="m149.667 233.105h-7a2.5 2.5 0 0 1 0-5h4.5v-4.468a2.5 2.5 0 0 1 5 0v6.968a2.5 2.5 0 0 1 -2.5 2.5z" fill="#c5e5ff"/><path d="m76.667 232.771h-5.667a2.5 2.5 0 1 1 0-5h3.167v-6.166a2.5 2.5 0 0 1 5 0v8.666a2.5 2.5 0 0 1 -2.5 2.5z" fill="#c5e5ff"/><path d="m235.227 231.688h-4.72a2.5 2.5 0 0 1 0-5h2.22v-4.125a2.5 2.5 0 0 1 5 0v6.625a2.5 2.5 0 0 1 -2.5 2.5z" fill="#c5e5ff"/><path d="m47.653 98.047c-17.889-12.276-17.889-26.432-17.889-31.084 0-3.826 0-13.987 9.74-24.208a2.5 2.5 0 1 1 3.619 3.445c-8.359 8.773-8.359 17.172-8.359 20.759 0 4.423 0 16.175 15.717 26.961a2.5 2.5 0 1 1 -2.828 4.123zm3.347-61.411a2.5 2.5 0 0 1 .907-3.417c10.841-6.3 23.912-10.194 36.167-12.594a2.5 2.5 0 1 1 .961 4.906c-11.651 2.283-24.264 6-34.618 12.012a2.5 2.5 0 0 1 -3.417-.907z" fill="#fff"/><path d="m16.229 65.369a2.5 2.5 0 0 0 2.681-2.3c3.42-44.048 64.665-57.13 108.69-57.13h.15c46.889 0 108.777 14.383 108.819 61.02-.029 20.27-11.75 36.08-34.84 47a5.375 5.375 0 0 0 -3.049 4.07l-2.571 17a.385.385 0 0 1 -.71.15l-7.479-11.73a5.378 5.378 0 0 0 -6-2.29 200.541 200.541 0 0 1 -43.95 6.6 5.417 5.417 0 0 0 -4.861 3.62l-4.75 13.79a.385.385 0 0 1 -.729.01l-4.74-13.77a5.4 5.4 0 0 0 -4.87-3.62 202.785 202.785 0 0 1 -44.18-6.48 5.39 5.39 0 0 0 -5.99 2.31l-7.281 11.52a.382.382 0 0 1 -.71-.14l-2.54-16.62a5.367 5.367 0 0 0 -3.09-4.08c-17.439-8.03-28.58-18.97-33.12-32.5a2.546 2.546 0 0 0 -3.17-1.57 2.516 2.516 0 0 0 -1.58 3.17c5.641 16.709 19.627 28.021 35.781 35.44a.409.409 0 0 1 .24.29l2.53 16.62a5.4 5.4 0 0 0 9.89 2.07l7.28-11.53a.374.374 0 0 1 .44-.16 207.392 207.392 0 0 0 45.29 6.65.381.381 0 0 1 .35.26l4.74 13.761a5.389 5.389 0 0 0 10.191.01l4.75-13.8a.379.379 0 0 1 .349-.26 206.375 206.375 0 0 0 45.071-6.77.382.382 0 0 1 .44.16l7.48 11.73a5.4 5.4 0 0 0 9.88-2.09l2.57-17a.37.37 0 0 1 .229-.3c22.151-10.308 37.753-27.188 37.71-51.52.046-50.106-63.955-66.02-113.9-66.02-47.407.016-110.128 14.51-113.75 61.749a2.5 2.5 0 0 0 2.309 2.68z"/><path d="m19.069 72.579a2.5 2.5 0 1 0 -4.96.56 2.5 2.5 0 1 0 4.96-.56z"/><path d="m106.939 29.929a2.515 2.515 0 0 0 3.481-.6l.01-.01a2.509 2.509 0 0 0 -.611-3.48 2.57 2.57 0 0 0 -3.489.61v.01a2.5 2.5 0 0 0 .609 3.47z"/><path d="m85.34 90.531v20.79a2.5 2.5 0 0 0 2.5 2.5h80.32a2.5 2.5 0 0 0 2.5-2.5v-20.79a27.41 27.41 0 0 0 -27.191-27.4 26.38 26.38 0 0 0 11-21.471c0-20.711-22.658-33.215-40.12-22.68a2.5 2.5 0 1 0 2.58 4.28c14.226-8.586 32.512 1.749 32.54 18.4a21.542 21.542 0 0 1 -21.442 21.459h-.056a21.528 21.528 0 0 1 -21.041-25.63 2.485 2.485 0 0 0 -1.97-2.93 2.527 2.527 0 0 0 -2.93 1.97 26.414 26.414 0 0 0 10.489 26.6 27.389 27.389 0 0 0 -27.179 27.402zm24.835-18.372c3.881 7.737 2.853 5.687 7.348 14.65l-2.07 2.5-8.93-6.864zm22.867-4.038-12.032 14.487-7.267-14.487zm-42.7 22.41a22.421 22.421 0 0 1 15.588-21.355l-4.724 13.3a2.5 2.5 0 0 0 .832 2.819l10.223 7.858-13 15.663h-8.921zm23.8 18.29h-8.387l33.789-40.7h3.716a22.412 22.412 0 0 1 3.743.312c-8.449 10.386-11.415 14.029-32.861 40.388zm38.048-38.84a22.376 22.376 0 0 1 5.994 3.844l-29.058 35h-8.539zm13.47 38.84h-30.035l25.924-31.221a22.332 22.332 0 0 1 4.111 12.931z"/><path d="m191.473 78.453a2.5 2.5 0 0 0 1.715 2.373c6.87 2.27 7.647 5.619 8.822 10.687a2.5 2.5 0 0 0 4.871 0c1.953-8.417 4.834-9.369 8.822-10.686a2.5 2.5 0 0 0 1.716-2.374 2.533 2.533 0 0 0 -1.98-2.461c-3.688-1.214-6.6-2.173-8.558-10.6a2.5 2.5 0 0 0 -4.871 0c-1.953 8.417-4.834 9.369-8.822 10.686a2.5 2.5 0 0 0 -1.715 2.375zm12.982-5.04a13.663 13.663 0 0 0 4.37 5.066 13.248 13.248 0 0 0 -4.323 4.89 13.856 13.856 0 0 0 -4.567-4.855 13.291 13.291 0 0 0 4.52-5.101z"/><path d="m193.435 39.281c-3.835-1.261-6.825-2.081-8.822-10.681a2.5 2.5 0 0 0 -4.871 0c-1.953 8.417-4.834 9.369-8.821 10.686a2.5 2.5 0 0 0 0 4.748c6.868 2.27 7.645 5.618 8.821 10.687a2.5 2.5 0 0 0 4.871 0c1.952-8.416 4.833-9.369 8.822-10.686a2.5 2.5 0 0 0 0-4.748zm-11.2 7.29a13.87 13.87 0 0 0 -4.566-4.855 13.278 13.278 0 0 0 4.521-5.1 13.637 13.637 0 0 0 4.37 5.066 13.26 13.26 0 0 0 -4.327 4.889z"/><path d="m56.559 89.3a2.5 2.5 0 0 0 4.871 0c1.952-8.416 4.833-9.369 8.821-10.686a2.5 2.5 0 0 0 0-4.747c-3.806-1.262-6.817-2.051-8.821-10.688a2.5 2.5 0 0 0 -4.871 0c-1.954 8.417-4.834 9.369-8.822 10.688a2.5 2.5 0 0 0 0 4.747c6.868 2.267 7.646 5.615 8.822 10.686zm2.441-18.1a13.654 13.654 0 0 0 4.37 5.066 13.25 13.25 0 0 0 -4.324 4.89 13.856 13.856 0 0 0 -4.563-4.856 13.284 13.284 0 0 0 4.517-5.1z"/><path d="m123.844 46.483a2.5 2.5 0 0 0 0 5h8.312a2.5 2.5 0 0 0 0-5h-1.656v-12.156a2.5 2.5 0 0 0 -3.349-2.352l-4.151 1.5a2.5 2.5 0 1 0 1.7 4.7l.808-.291v8.6z"/><path d="m246.729 236.621v-18.952c0-12.6-9.505-24.991-26.4-24.991a17.78 17.78 0 0 0 5.486-12.841v-11.872a19.363 19.363 0 0 0 2.451-21.118 2.5 2.5 0 0 0 -3.407-1.126l-6.619 3.455a9.444 9.444 0 0 1 -4.351 1.067h-14.182a10.493 10.493 0 0 0 -10.357 12.157l.778 4.828v12.6a17.78 17.78 0 0 0 5.486 12.841c-6.893 0-12.913 1.553-18.425 6.671a2.507 2.507 0 0 0 -.129 3.54 2.574 2.574 0 0 0 3.53.13.01.01 0 0 0 .01-.01 19.945 19.945 0 0 1 8.383-4.628l-7.983 11.834a2.5 2.5 0 0 0 .233 3.092l21.029 22.841h-28.062v-16.98a2.5 2.5 0 0 0 -5 0v16.982h-8.61v-15.89a21.224 21.224 0 0 0 -21.309-21.163 15.1 15.1 0 0 0 1.481-1.94h9.958a2.5 2.5 0 0 0 2.5-2.5v-12.28a25.22 25.22 0 0 0 -50.44 0v12.28a2.5 2.5 0 0 0 2.5 2.5h9.959a15.213 15.213 0 0 0 1.481 1.94 21.221 21.221 0 0 0 -21.31 21.163v15.89h-6.539v-18.9c0-13.217-10.287-25.64-26.543-25.64h-1.284a18.213 18.213 0 0 0 5.757-13.28v-17.75a10.565 10.565 0 0 0 -9.043-10.59h-.011a10.479 10.479 0 0 0 -7.37 1.847 3.159 3.159 0 0 1 -3.724 0 10.422 10.422 0 0 0 -7.37-1.845 10.563 10.563 0 0 0 -9.043 10.59v17.75a18.213 18.213 0 0 0 5.76 13.277h-1.287a25.7 25.7 0 0 0 -25.447 25.64v19.378a9.457 9.457 0 0 0 2.944 18.445h231.58a9.453 9.453 0 0 0 2.939-18.44zm-108.5-47.763a10.23 10.23 0 1 1 -20.459 0v-7.758l20.459 2.74zm-30.449 3.29v-9.78a20.22 20.22 0 0 1 40.44 0v9.78h-5.35a16.015 16.015 0 0 0 .359-3.29v-7.21a2.5 2.5 0 0 0 -2.167-2.478l-25.46-3.41a2.5 2.5 0 0 0 -2.832 2.478v10.62a17.969 17.969 0 0 0 .359 3.29zm114.82 8.711 7.093 10.506-15.924 17.3zm-14.63 29.531-10.39-32.711h20.779c-3.894 12.259-8.624 27.154-10.389 32.711zm33.759-12.721v18.47h-28.051l21.028-22.839a2.5 2.5 0 0 0 .233-3.092l-7.973-11.81a20.009 20.009 0 0 1 14.763 19.271zm-42.022-62.426h14.178a14.464 14.464 0 0 0 6.664-1.634l4.18-2.182a14.366 14.366 0 0 1 -2.554 13.107h-27.418l-.472-2.926a5.493 5.493 0 0 1 5.422-6.365zm-4.579 24.594v-10.3h25.683v10.3a12.842 12.842 0 0 1 -25.683 0zm-8.878 31.528 7.094-10.506c8.759 27.578 7.8 24.56 8.831 27.8zm-30.66 8.886v15.89h-25.09v-7.053l11.572-7.088a9.921 9.921 0 0 0 3.788-12.734l-2.171-4.58a16.185 16.185 0 0 1 11.901 15.565zm-40.932-8.846 1.8-3.795 6.048 13.778-5.964-3.654a4.932 4.932 0 0 1 -1.884-6.329zm5.715-7.314h15.254l-7.627 17.376zm19.17 3.518 1.8 3.8a4.931 4.931 0 0 1 -1.884 6.328l-5.964 3.655zm-39.133 12.642a16.186 16.186 0 0 1 11.9-15.569l-2.171 4.581a9.923 9.923 0 0 0 3.79 12.737l11.572 7.091v7.052h-25.091zm-16.539-3.013v18.9h-29.643l21.029-22.838a2.5 2.5 0 0 0 .273-3.031l-8.415-13.286a20.676 20.676 0 0 1 16.756 20.255zm-20.757-17.228 7.166 11.313-16.089 17.477zm-25.008-3.41h20.829l-10.414 33.6zm4.744 32.2-16.088-17.477 7.166-11.313zm-7.61-68.229a5.555 5.555 0 0 1 4.669-5.629 5.429 5.429 0 0 1 3.837.952 8.2 8.2 0 0 0 9.531.006 5.425 5.425 0 0 1 3.85-.959 5.558 5.558 0 0 1 4.674 5.63v3.662a10.71 10.71 0 0 0 -5.4-1.512 10.324 10.324 0 0 0 -6.023 1.926 3.151 3.151 0 0 1 -3.715 0 10.333 10.333 0 0 0 -6.031-1.924 10.677 10.677 0 0 0 -5.391 1.509zm0 17.75v-5.221a5.4 5.4 0 0 1 8.517-4.386 8.192 8.192 0 0 0 9.525 0 5.333 5.333 0 0 1 3.118-1 5.4 5.4 0 0 1 5.4 5.38v5.22a13.281 13.281 0 0 1 -26.561 0zm-5.5 18.965-8.224 12.984a2.5 2.5 0 0 0 .273 3.031l21.029 22.843h-28.552v-18.9a20.669 20.669 0 0 1 15.47-19.961zm214.05 52.775h-231.58a4.458 4.458 0 0 1 -.043-8.916h231.623a4.46 4.46 0 0 1 0 8.92z"/><path d="m174.21 207.039a2.546 2.546 0 0 0 -3.25 1.4 2.5 2.5 0 1 0 3.25-1.4z"/></svg>