<svg height="496pt" viewBox="0 0 496 496" width="496pt" xmlns="http://www.w3.org/2000/svg"><path d="m312 8h-304v448h224v-9.921875c0-14.230469 9.441406-26.796875 23.121094-30.71875l63.839844-18.472656 17.039062-4.886719v-24l24-198.679688c5.519531 0 10.878906-.761718 16 .28125v-97.601562zm0 0" fill="#e6e9ed"/><g fill="#ffeaa7"><path d="m40 344h144v80h-144zm0 0"/><path d="m200 184h112c-19.441406 14.640625-32 37.839844-32 64v16h-80zm0 0"/><path d="m344 72v64h-144v-80h112v16zm0 0"/></g><path d="m376 72h-64v-64zm0 0" fill="#b4dd7f"/><path d="m128 296c0 8.835938-7.164062 16-16 16s-16-7.164062-16-16 7.164062-16 16-16 16 7.164062 16 16zm0 0" fill="#ff826e"/><path d="m168 104v4.078125c0 17.121094-6.640625 33.203125-18.71875 45.28125l-21.28125 21.28125v57.359375l-32 16v-86.640625l30.640625-30.640625c6-6 9.359375-14.078125 9.359375-22.640625v-4.078125c0-17.679688-14.320312-32-32-32s-32 14.320312-32 32v16h-32v-16c0-35.28125 28.71875-64 64-64s64 28.71875 64 64zm0 0" fill="#ff826e"/><path d="m440 248v56c0-6.640625-2.71875-12.640625-7.039062-16.960938-4.320313-4.320312-10.320313-7.039062-16.960938-7.039062v-16h-3.121094c-18.878906 0-37.199218-5.601562-52.878906-16-15.679688 10.398438-34 16-52.878906 16h-3.121094v16c-13.28125 0-24 10.71875-24 24v-56c0-26.160156 12.558594-49.359375 32-64 13.359375-10 30-16 48-16 5.519531 0 10.878906.558594 16 1.601562 15.679688 3.199219 29.679688 10.957032 40.558594 21.839844 14.480468 14.480469 23.441406 34.480469 23.441406 56.558594zm0 0" fill="#b27946"/><path d="m464.878906 416.921875-80.878906-24.921875h-48l-80.878906 24.921875c-13.679688 3.917969-23.121094 14.917969-23.121094 29.15625v41.921875h256v-41.921875c0-14.238281-9.441406-25.238281-23.121094-29.15625zm0 0" fill="#b4dd7f"/><path d="m401.039062 396.878906-17.039062 51.121094-24-32 24-24zm0 0" fill="#ffeaa7"/><path d="m360 416-24 32-17.039062-51.121094 17.039062-4.878906zm0 0" fill="#ffeaa7"/><path d="m384 365.359375v26.640625l-24 24-24-24v-26.640625l9.359375 6.242187c4.320313 2.878907 9.441406 4.398438 14.640625 4.398438s10.320312-1.519531 14.640625-4.398438zm0 0" fill="#ecc19c"/><path d="m416 318.320312v-38.320312c6.640625 0 12.640625 2.71875 16.960938 7.039062 4.320312 4.320313 7.039062 10.320313 7.039062 16.960938 0 13.28125-10.71875 24-24 24h-.960938c.640626-3.199219.960938-6.398438.960938-9.679688zm0 0" fill="#ecc19c"/><path d="m304 318.320312c0 3.28125.320312 6.480469.960938 9.679688h-.960938c-6.640625 0-12.640625-2.71875-16.960938-7.039062-4.320312-4.320313-7.039062-10.320313-7.039062-16.960938 0-13.28125 10.71875-24 24-24zm0 0" fill="#ecc19c"/><path d="m416 280v38.320312c0 3.28125-.320312 6.480469-.960938 9.679688-2.558593 12.238281-9.757812 23.199219-20.398437 30.238281l-10.640625 7.121094-9.359375 6.242187c-4.320313 2.878907-9.441406 4.398438-14.640625 4.398438s-10.320312-1.519531-14.640625-4.398438l-9.359375-6.242187-10.640625-7.121094c-10.640625-7.039062-17.832031-18-20.398437-30.238281-.640626-3.199219-.960938-6.398438-.960938-9.679688v-54.320312h3.121094c18.878906 0 37.199218-5.601562 52.878906-16 15.679688 10.398438 34 16 52.878906 16h3.121094zm0 0" fill="#f0d0b4"/><path d="m80 104c0-13.230469 10.769531-24 24-24s24 10.769531 24 24v4.121094c0 6.414062-2.496094 12.4375-7.03125 16.976562l-32.96875 32.964844v102.882812l48-24v-59.007812l18.902344-18.90625c13.601562-13.597656 21.097656-31.679688 21.097656-50.917969v-4.113281c0-39.695312-32.296875-72-72-72s-72 32.304688-72 72v24h48zm-16 0v8h-16v-8c0-30.878906 25.128906-56 56-56s56 25.121094 56 56v4.121094c0 14.96875-5.832031 29.023437-16.40625 39.597656l-23.59375 23.59375v55.742188l-16 8v-70.367188l28.28125-28.28125c7.550781-7.550781 11.71875-17.597656 11.71875-28.285156v-4.121094c0-22.054688-17.945312-40-40-40s-40 17.945312-40 40zm0 0"/><path d="m88 296c0 13.230469 10.769531 24 24 24s24-10.769531 24-24-10.769531-24-24-24-24 10.769531-24 24zm32 0c0 4.414062-3.585938 8-8 8s-8-3.585938-8-8 3.585938-8 8-8 8 3.585938 8 8zm0 0"/><path d="m32 432h160v-96h-160zm16-80h128v64h-128zm0 0"/><path d="m467.089844 407.640625-75.089844-21.65625v-16.367187l7.0625-4.714844c10.691406-7.125 18.320312-17.566406 22.144531-29.429688 15.167969-2.503906 26.792969-15.609375 26.792969-31.472656v-56c0-40.191406-27.121094-74.105469-64-84.59375v-94.71875l-68.6875-68.6875h-315.3125v464h224v32h272v-49.929688c0-17.710937-11.886719-33.519531-28.910156-38.429687zm-123.089844-18.953125v-8.726562c4.9375 2.605468 10.382812 4.039062 16 4.039062s11.0625-1.433594 16-4.03125v8.71875l-16 16zm-10.320312 12.304688 15.761718 15.761718-10.679687 14.230469-9.570313-28.695313zm52.640624 0 4.488282 1.296874-9.570313 28.695313-10.679687-14.230469zm21.679688-82.679688c0 13.398438-6.65625 25.839844-17.816406 33.28125l-19.960938 13.308594c-6.09375 4.050781-14.367187 4.050781-20.445312 0l-19.96875-13.308594c-11.152344-7.433594-17.808594-19.882812-17.808594-33.28125v-46.425781c16.984375-.789063 33.398438-5.726563 48-14.4375 14.601562 8.710937 31.015625 13.648437 48 14.4375zm16-.535156v-27.546875c4.761719 2.777343 8 7.882812 8 13.777343 0 5.894532-3.238281 10.992188-8 13.769532zm8-69.777344v28.449219c-2.480469-1.449219-5.152344-2.578125-8-3.3125v-17.136719h-11.160156c-17.28125 0-34.023438-5.0625-48.40625-14.65625l-4.433594-2.960938-4.441406 2.960938c-14.382813 9.59375-31.117188 14.65625-48.398438 14.65625h-11.160156v17.136719c-2.847656.734375-5.519531 1.863281-8 3.3125v-28.449219c0-39.695312 32.296875-72 72-72s72 32.304688 72 72zm-144 56c0-5.894531 3.238281-11 8-13.777344v27.546875c-4.761719-2.769531-8-7.875-8-13.769531zm-16-48h-64v-64h84.167969c-12.59375 15.222656-20.167969 34.742188-20.167969 56zm64-176v48h-128v-64h96v16zm-16-16v-36.6875l36.6875 36.6875zm-96 382.070312v1.929688h-208v-432h288v32h-112v96h160v-64h16v80.40625c-2.640625-.238281-5.296875-.40625-8-.40625-18.769531 0-36.136719 5.953125-50.441406 16h-117.558594v96h80v32c0 15.863281 11.625 28.96875 26.792969 31.472656 3.824219 11.871094 11.464843 22.3125 22.144531 29.429688l7.0625 4.714844v16.367187l-75.089844 21.65625c-17.023437 4.910156-28.910156 20.71875-28.910156 38.429687zm256 33.929688h-41.441406l-6.710938-33.566406-15.6875 3.140625 6.078125 30.425781h-124.476562l6.085937-30.433594-15.6875-3.140625-6.71875 33.574219h-41.441406v-33.929688c0-10.621093 7.136719-20.109374 17.351562-23.054687l56.457032-16.289063 19.429687 58.289063 26.761719-35.679687 26.761719 35.679687 19.429687-58.289063 56.457032 16.289063c10.214843 2.945313 17.351562 12.433594 17.351562 23.054687zm0 0"/></svg>