<?xml version="1.0" encoding="iso-8859-1"?>
<!-- Generator: Adobe Illustrator 19.0.0, SVG Export Plug-In . SVG Version: 6.00 Build 0)  -->
<svg version="1.1" id="Capa_1" xmlns="http://www.w3.org/2000/svg" xmlns:xlink="http://www.w3.org/1999/xlink" x="0px" y="0px"
	 viewBox="0 0 512 512" style="enable-background:new 0 0 512 512;" xml:space="preserve">
<path style="fill:#26BBEC;" d="M465.615,503.616H46.385v-75.997c0-40.719,36.733-73.726,82.048-73.726L256,348.502l127.567,5.391
	c45.315,0,82.048,33.01,82.048,73.726L465.615,503.616L465.615,503.616z"/>
<path d="M465.615,512H46.385c-4.63,0-8.385-3.754-8.385-8.385v-75.997c0-45.276,40.568-82.109,90.431-82.109l127.214-5.384
	c0.237-0.009,0.477-0.009,0.706,0l127.566,5.391c0.004,0,0.013,0,0.016,0c49.51,0,90.065,36.83,90.065,82.102v75.997
	C473.999,508.246,470.245,512,465.615,512z M54.77,495.231h402.46v-67.613c0-36.027-33.047-65.341-73.664-65.341L256,356.894
	l-127.214,5.375c-40.971,0.009-74.016,29.321-74.016,65.349v67.613H54.77z"/>
<path style="fill:#EAC583;" d="M323.076,358.982L323.076,358.982c-42.225,13.197-91.929,13.197-134.154,0l0,0v-73.365h134.154
	V358.982z"/>
<path d="M256,377.2c-23.901,0-47.792-3.406-69.578-10.214c-3.5-1.097-5.883-4.336-5.883-8.004v-73.365
	c0-4.63,3.754-8.385,8.385-8.385h134.154c4.63,0,8.385,3.754,8.385,8.385v73.365c0,3.668-2.382,6.906-5.883,8.004
	C303.798,373.794,279.893,377.2,256,377.2z M197.308,352.714c37.196,10.329,80.182,10.338,117.384,0v-58.713H197.308V352.714z"/>
<path style="fill:#FFDD95;" d="M318.515,319.156h-125.03c-30.302,0-54.869-24.562-54.869-54.865V112.983
	c0-11.164,9.047-20.211,20.211-20.211h194.347c11.164,0,20.211,9.047,20.211,20.211v151.304
	C373.384,294.593,348.818,319.156,318.515,319.156z"/>
<path d="M318.516,327.539H193.484c-34.877,0-63.253-28.372-63.253-63.249V112.983c0-15.768,12.827-28.594,28.594-28.594h194.346
	c15.77,0,28.596,12.827,28.596,28.594v151.303C381.769,299.163,353.393,327.539,318.516,327.539z M158.826,101.158
	c-6.52,0-11.826,5.306-11.826,11.826v151.307c0,25.629,20.853,46.479,46.483,46.479h125.032c25.633,0,46.483-20.85,46.483-46.483
	V112.983c0-6.52-5.306-11.826-11.828-11.826H158.826V101.158z"/>
<rect x="373.387" y="134.695" style="fill:#8C6B3B;" width="50.306" height="109"/>
<path d="M423.691,252.078h-50.308c-4.63,0-8.385-3.754-8.385-8.385V134.695c0-4.63,3.754-8.385,8.385-8.385h50.308
	c4.63,0,8.385,3.754,8.385,8.385v108.997C432.076,248.323,428.322,252.078,423.691,252.078z M381.769,235.309h33.539v-92.228
	h-33.539V235.309z"/>
<polygon style="fill:#8C6B3B;" points="138.616,243.694 88.309,243.694 88.309,134.694 113.462,134.694 138.616,134.694 "/>
<path d="M138.616,252.078H88.309c-4.63,0-8.385-3.754-8.385-8.385V134.695c0-4.63,3.754-8.385,8.385-8.385h50.308
	c4.63,0,8.385,3.754,8.385,8.385v108.997C147,248.323,143.246,252.078,138.616,252.078z M96.692,235.309h33.539v-92.228H96.692
	V235.309z"/>
<path d="M398.538,135.238c-4.929,0-8.925-3.998-8.925-8.928V36.382c0-10.219-9.957-18.53-22.19-18.53H144.577
	c-12.235,0-22.187,8.311-22.187,18.53v89.928c0,4.929-3.998,8.928-8.928,8.928s-8.925-3.998-8.925-8.928V36.382
	C104.537,16.321,122.498,0,144.577,0h222.847c22.079,0,40.039,16.321,40.039,36.382v89.93
	C407.463,131.24,403.467,135.238,398.538,135.238z"/>
<path style="fill:#FCAD3A;" d="M341.221,151.464H138.616V77.402c0-19.297,15.641-34.938,34.938-34.938h224.983v51.682
	C398.538,125.803,372.876,151.464,341.221,151.464z"/>
<path d="M341.222,159.849H138.616c-4.63,0-8.385-3.754-8.385-8.385V77.404c0-23.888,19.435-43.323,43.323-43.323h224.984
	c4.63,0,8.385,3.754,8.385,8.385v51.681C406.923,130.375,377.449,159.849,341.222,159.849z M147,143.08h194.222
	c26.98,0,48.932-21.952,48.932-48.934V50.85H173.554C158.912,50.85,147,62.761,147,77.404V143.08z"/>
<path style="fill:#8C6B3B;" d="M293.73,277.233h-41.923c-6.947,0-12.576-5.63-12.576-12.576l0,0c0-6.947,5.63-12.576,12.576-12.576
	h41.923c6.947,0,12.576,5.63,12.576,12.576l0,0C306.308,271.603,300.677,277.233,293.73,277.233z"/>
<path d="M293.73,285.616h-41.923c-11.558,0-20.961-9.404-20.961-20.961s9.404-20.961,20.961-20.961h41.923
	c11.558,0,20.961,9.404,20.961,20.961C314.692,276.212,305.288,285.616,293.73,285.616z M251.808,260.462
	c-2.311,0-4.192,1.879-4.192,4.192c0,2.313,1.881,4.192,4.192,4.192h41.923c2.313,0,4.192-1.879,4.192-4.192
	c0-2.313-1.879-4.192-4.192-4.192H251.808z"/>
<path d="M398.538,277.232h-92.23c-4.63,0-8.385-3.754-8.385-8.385s3.754-8.385,8.385-8.385h83.846v-16.769
	c0-4.63,3.754-8.385,8.385-8.385c4.63,0,8.385,3.754,8.385,8.385v25.154C406.923,273.477,403.169,277.232,398.538,277.232z"/>
<g>
</g>
<g>
</g>
<g>
</g>
<g>
</g>
<g>
</g>
<g>
</g>
<g>
</g>
<g>
</g>
<g>
</g>
<g>
</g>
<g>
</g>
<g>
</g>
<g>
</g>
<g>
</g>
<g>
</g>
</svg>
