<svg id="fill" height="512" viewBox="0 0 64 64" width="512" xmlns="http://www.w3.org/2000/svg"><path d="m57 44-3-26h-44l-3 26a7.072 7.072 0 0 1 0 10h21a4.98 4.98 0 0 0 4-2.027 4.98 4.98 0 0 0 4 2.027h21a7.072 7.072 0 0 1 0-10z" fill="#f8f8fe"/><path d="m28 18h8v31h-8z" fill="#e3e3ff"/><path d="m57 44-3-26h-2l3 26a7.072 7.072 0 0 0 0 10h2a7.072 7.072 0 0 1 0-10z" fill="#e3e3ff"/><path d="m36 44a4.98 4.98 0 0 0 -4 2.027 4.98 4.98 0 0 0 -4-2.027h-21a7.072 7.072 0 0 1 0 10h21a4.98 4.98 0 0 0 4-2.027 4.98 4.98 0 0 0 4 2.027h21a7.072 7.072 0 0 1 0-10z" fill="#2298d1"/><path d="m40 16a8 8 0 1 0 -12.758 6.421l.758 8.579h8l.758-8.579a7.98 7.98 0 0 0 3.242-6.421z" fill="#f8cc5c"/><path d="m27.647 27 .353 4 .272 1.09a3.843 3.843 0 0 0 7.456 0l.272-1.09.353-4z" fill="#e3e3ff"/><path d="m33.618 27-.265 3-.272 1.09a3.84 3.84 0 0 1 -3.655 2.9 3.827 3.827 0 0 0 6.3-1.9l.274-1.09.353-4z" fill="#b1a6d8"/><path d="m28 31h8l.353-4h-8.706z" fill="#b1a6d8"/><path d="m30.989 2h2v2h-2z" fill="#f8cc5c"/><path d="m26.397 2.914h2v2h-2z" fill="#f8cc5c" transform="matrix(.924 -.383 .383 .924 .589 10.786)"/><path d="m22.504 5.515h2v2h-2z" fill="#f8cc5c" transform="matrix(.707 -.707 .707 .707 2.278 18.528)"/><path d="m19.903 9.408h2v2h-2z" fill="#f8cc5c" transform="matrix(.383 -.924 .924 .383 3.286 25.735)"/><path d="m42.076 9.408h2v2h-2z" fill="#f8cc5c" transform="matrix(.924 -.383 .383 .924 -.703 17.283)"/><path d="m39.475 5.515h2v2h-2z" fill="#f8cc5c" transform="matrix(.707 -.707 .707 .707 7.248 30.528)"/><path d="m35.582 2.914h2v2h-2z" fill="#f8cc5c" transform="matrix(.383 -.924 .924 .383 18.963 36.211)"/><path d="m34.293 16.293-2.293 2.293-2.293-2.293-1.414 1.414 2.707 2.707v6.586h2v-6.586l2.707-2.707z" fill="#fff"/><path d="m37 47h13v2h-13z" fill="#376de3"/><path d="m27 49h-17.929a7.082 7.082 0 0 1 -.288 2h18.217z" fill="#376de3"/><path d="m22 31h-9l1-9h8z" fill="#5952f9"/><g fill="#376de3"><path d="m12 34h6v2h-6z"/><path d="m20 34h2v2h-2z"/><path d="m11 38h9v2h-9z"/><path d="m22 38h5v2h-5z"/><path d="m41 22h10v2h-10z"/><path d="m40 26h2v2h-2z"/><path d="m44 26h8v2h-8z"/><path d="m39 30h5v2h-5z"/><path d="m46 30h6v2h-6z"/><path d="m51 34h2v2h-2z"/><path d="m38 34h11v2h-11z"/><path d="m36 38h10v2h-10z"/><path d="m48 38h5v2h-5z"/></g><path d="m50 61-4-4-4 4v-13h8z" fill="#ec5043"/><path d="m30.989 2h2v2h-2z"/><path d="m26.397 2.914h2v2h-2z" transform="matrix(.924 -.383 .383 .924 .589 10.786)"/><path d="m22.504 5.515h2v2h-2z" transform="matrix(.707 -.707 .707 .707 2.278 18.528)"/><path d="m19.903 9.408h2v2h-2z" transform="matrix(.383 -.924 .924 .383 3.286 25.735)"/><path d="m42.076 9.408h2v2h-2z" transform="matrix(.924 -.383 .383 .924 -.703 17.283)"/><path d="m39.475 5.515h2v2h-2z" transform="matrix(.707 -.707 .707 .707 7.248 30.528)"/><path d="m35.582 2.914h2v2h-2z" transform="matrix(.383 -.924 .924 .383 18.963 36.211)"/><path d="m57.991 43.885-3-26a1 1 0 0 0 -.991-.885h-13.055a9.2 9.2 0 0 0 .055-1 9 9 0 0 0 -18 0 9.2 9.2 0 0 0 .055 1h-13.055a1 1 0 0 0 -.993.885l-3 26a1 1 0 0 0 .284.821 6.072 6.072 0 0 1 0 8.586 1 1 0 0 0 .709 1.708h21a5.914 5.914 0 0 0 4-1.544 5.914 5.914 0 0 0 4 1.544h5v6a1 1 0 0 0 1.707.707l3.293-3.293 3.293 3.293a1 1 0 0 0 1.707-.707v-6h6a1 1 0 0 0 .707-1.707 6.072 6.072 0 0 1 0-8.586 1 1 0 0 0 .284-.822zm-25.991-34.885a7.008 7.008 0 0 1 7 7 6.936 6.936 0 0 1 -2.838 5.617 1 1 0 0 0 -.4.716l-.324 3.667h-2.438v-5.586l2.707-2.707-1.414-1.414-2.293 2.293-2.293-2.293-1.414 1.414 2.707 2.707v5.586h-2.438l-.324-3.667a1 1 0 0 0 -.4-.716 6.936 6.936 0 0 1 -2.838-5.617 7.008 7.008 0 0 1 7-7zm-3.084 21-.177-2h6.522l-.177 2zm5.789 2a2.829 2.829 0 0 1 -5.41 0zm14.295 26.586-2.293-2.293a1 1 0 0 0 -1.414 0l-2.293 2.293v-9.586h6zm5.985-5.586h-3.985v-5a1 1 0 0 0 -1-1h-13v2h4v4h-5a3.96 3.96 0 0 1 -3.2-1.625 1.037 1.037 0 0 0 -1.6 0 3.96 3.96 0 0 1 -3.2 1.625h-18.985a7.992 7.992 0 0 0 .8-2h17.185v-2h-16.929a8.03 8.03 0 0 0 -1.056-4h18.985a3.96 3.96 0 0 1 3.2 1.625 1.037 1.037 0 0 0 1.6 0 3.96 3.96 0 0 1 3.2-1.625h18.985a8.1 8.1 0 0 0 0 8zm-18.985-10a5.914 5.914 0 0 0 -4 1.544 5.914 5.914 0 0 0 -4-1.544h-19.878l2.77-24h12.621a8.934 8.934 0 0 0 2.771 3.941l.716 8.147a.966.966 0 0 0 .043.151h-.017l.273 1.089a4.841 4.841 0 0 0 9.394 0l.273-1.089h-.017a.966.966 0 0 0 .051-.151l.72-8.147a8.934 8.934 0 0 0 2.767-3.941h12.621l2.77 24z"/><path d="m13 32h9a1 1 0 0 0 1-1v-9a1 1 0 0 0 -1-1h-8a1 1 0 0 0 -.994.89l-1 9a1 1 0 0 0 .994 1.11zm1.9-9h6.1v7h-6.883z"/><path d="m12 34h6v2h-6z"/><path d="m20 34h2v2h-2z"/><path d="m11 38h9v2h-9z"/><path d="m22 38h5v2h-5z"/><path d="m41 22h10v2h-10z"/><path d="m40 26h2v2h-2z"/><path d="m44 26h8v2h-8z"/><path d="m39 30h5v2h-5z"/><path d="m46 30h6v2h-6z"/><path d="m51 34h2v2h-2z"/><path d="m38 34h11v2h-11z"/><path d="m36 38h10v2h-10z"/><path d="m48 38h5v2h-5z"/></svg>